<svg width="353" height="68" viewBox="0 0 353 68" fill="none" xmlns="http://www.w3.org/2000/svg">
<path d="M0 66.1439V14.0376H19.9865C22.8151 14.0376 25.3708 14.7448 27.6536 16.1591C29.9363 17.5734 31.7477 19.4715 33.0875 21.8536C34.4274 24.2107 35.0973 26.8285 35.0973 29.7067C35.0973 32.0639 34.6631 34.235 33.7947 36.22C32.9511 38.1802 31.7601 39.8799 30.2217 41.319C28.7081 42.7581 26.9588 43.8499 24.9738 44.5942L37.4421 66.1439H26.9836L14.9247 45.4131H9.08139V66.1439H0ZM9.08139 36.3317H18.9444C20.2346 36.3317 21.4132 36.0091 22.4802 35.364C23.5471 34.7189 24.4031 33.8504 25.0483 32.7587C25.6934 31.6669 26.016 30.4511 26.016 29.1112C26.016 27.7465 25.6934 26.5183 25.0483 25.4266C24.4031 24.3348 23.5471 23.4664 22.4802 22.8212C21.4132 22.1761 20.2346 21.8536 18.9444 21.8536H9.08139V36.3317Z" fill="#864EFF"/>
<path d="M58.3928 67.1116C54.9687 67.1116 51.8423 66.2308 49.0137 64.4691C46.2099 62.7074 43.9643 60.3378 42.2771 57.3603C40.6146 54.3828 39.7834 51.0951 39.7834 47.4973C39.7834 44.7928 40.2673 42.2619 41.235 39.9047C42.2027 37.5227 43.5301 35.4384 45.2174 33.6519C46.9294 31.8406 48.9144 30.4263 51.1724 29.409C53.4303 28.3917 55.8371 27.883 58.3928 27.883C61.2959 27.883 63.9508 28.5033 66.3577 29.7439C68.7893 30.9598 70.8487 32.6346 72.536 34.7685C74.2232 36.9024 75.4515 39.334 76.2206 42.0634C76.9898 44.7928 77.1635 47.6462 76.7417 50.6237H49.5348C49.8821 52.0132 50.4528 53.2662 51.2468 54.3828C52.0408 55.4746 53.0457 56.3554 54.2615 57.0253C55.4774 57.6705 56.8545 58.0054 58.3928 58.0302C59.9808 58.0551 61.42 57.6829 62.7102 56.9137C64.0253 56.1197 65.117 55.0527 65.9855 53.7129L75.253 55.8716C73.7394 59.1716 71.4815 61.8762 68.4791 63.9853C65.4768 66.0695 62.1147 67.1116 58.3928 67.1116ZM49.237 43.8127H67.5487C67.2757 42.3239 66.6926 40.984 65.7994 39.793C64.9309 38.5772 63.8516 37.6095 62.5613 36.89C61.2711 36.1704 59.8816 35.8106 58.3928 35.8106C56.9041 35.8106 55.527 36.1704 54.2615 36.89C52.9961 37.5847 51.9168 38.54 51.0235 39.7558C50.1551 40.9468 49.5596 42.2991 49.237 43.8127Z" fill="#864EFF"/>
<path d="M86.1063 67.1116C84.8161 67.1116 83.7119 66.665 82.7938 65.7718C81.9006 64.8537 81.454 63.7371 81.454 62.4221C81.454 61.1566 81.9006 60.0649 82.7938 59.1468C83.7119 58.2287 84.8161 57.7697 86.1063 57.7697C87.3966 57.7697 88.5007 58.2287 89.4188 59.1468C90.3369 60.0649 90.7959 61.1566 90.7959 62.4221C90.7959 63.7371 90.3369 64.8537 89.4188 65.7718C88.5007 66.665 87.3966 67.1116 86.1063 67.1116Z" fill="#864EFF"/>
<path d="M110.714 66.8139C108.779 66.6898 106.906 66.3052 105.094 65.6601C103.308 64.9902 101.72 64.0845 100.33 62.9431C98.9408 61.8018 97.8739 60.4371 97.1295 58.8491L104.797 55.5738C105.094 56.0701 105.578 56.6035 106.248 57.1742C106.918 57.7201 107.712 58.1791 108.63 58.5513C109.573 58.9235 110.603 59.1096 111.719 59.1096C112.662 59.1096 113.555 58.9855 114.399 58.7374C115.267 58.4645 115.962 58.0551 116.483 57.5092C117.029 56.9633 117.302 56.2561 117.302 55.3877C117.302 54.4696 116.98 53.7625 116.334 53.2662C115.714 52.7452 114.92 52.3606 113.952 52.1125C113.01 51.8395 112.091 51.5914 111.198 51.3681C108.841 50.8966 106.645 50.1647 104.61 49.1722C102.601 48.1797 100.975 46.9018 99.7348 45.3386C98.519 43.7506 97.9111 41.8401 97.9111 39.6069C97.9111 37.1505 98.5562 35.029 99.8465 33.2425C101.162 31.456 102.861 30.0789 104.945 29.1112C107.055 28.1435 109.325 27.6597 111.756 27.6597C114.709 27.6597 117.414 28.28 119.87 29.5206C122.351 30.7364 124.312 32.4609 125.751 34.694L118.568 38.937C118.22 38.3415 117.736 37.7956 117.116 37.2994C116.496 36.7783 115.789 36.3565 114.995 36.0339C114.201 35.6865 113.369 35.488 112.501 35.4384C111.384 35.3888 110.367 35.488 109.449 35.7362C108.531 35.9843 107.786 36.4061 107.216 37.0016C106.67 37.5971 106.397 38.3911 106.397 39.3836C106.397 40.3265 106.769 41.0336 107.514 41.5051C108.258 41.9517 109.151 42.2991 110.193 42.5472C111.26 42.7953 112.278 43.0683 113.245 43.366C115.429 44.0856 117.476 44.9664 119.386 46.0086C121.322 47.0507 122.873 48.3285 124.039 49.8421C125.205 51.3557 125.763 53.167 125.714 55.2761C125.714 57.6829 124.994 59.7919 123.555 61.6033C122.116 63.3898 120.255 64.7544 117.972 65.6973C115.714 66.6402 113.295 67.0124 110.714 66.8139Z" fill="black"/>
<path d="M147.878 67.1116C144.454 67.1116 141.327 66.2308 138.499 64.4691C135.695 62.7074 133.449 60.3502 131.762 57.3975C130.1 54.42 129.269 51.1324 129.269 47.5345C129.269 44.8052 129.752 42.2619 130.72 39.9047C131.688 37.5227 133.015 35.4384 134.702 33.6519C136.415 31.8406 138.4 30.4263 140.657 29.409C142.915 28.3917 145.322 27.883 147.878 27.883C151.302 27.883 154.416 28.7638 157.22 30.5255C160.048 32.2872 162.294 34.6568 163.956 37.6343C165.644 40.6118 166.487 43.9119 166.487 47.5345C166.487 50.2391 166.003 52.77 165.036 55.1272C164.068 57.4844 162.728 59.5686 161.016 61.3799C159.329 63.1664 157.356 64.5684 155.098 65.5857C152.865 66.603 150.458 67.1116 147.878 67.1116ZM147.878 58.0302C149.689 58.0302 151.314 57.5464 152.754 56.5787C154.193 55.611 155.322 54.3332 156.141 52.7452C156.984 51.1572 157.406 49.4203 157.406 47.5345C157.406 45.5992 156.972 43.8375 156.103 42.2495C155.26 40.6367 154.106 39.3588 152.642 38.4159C151.203 37.4482 149.615 36.9644 147.878 36.9644C146.091 36.9644 144.479 37.4482 143.039 38.4159C141.6 39.3836 140.459 40.6739 139.615 42.2867C138.772 43.8995 138.35 45.6488 138.35 47.5345C138.35 49.4947 138.784 51.2688 139.653 52.8568C140.521 54.4448 141.675 55.7103 143.114 56.6531C144.578 57.5712 146.166 58.0302 147.878 58.0302Z" fill="black"/>
<path d="M169.994 52.373V28.9251H179.075V49.991C179.075 51.4549 179.435 52.7948 180.155 54.0106C180.874 55.2016 181.83 56.1569 183.021 56.8765C184.236 57.5712 185.564 57.9186 187.003 57.9186C188.492 57.9186 189.832 57.5712 191.023 56.8765C192.214 56.1569 193.169 55.2016 193.889 54.0106C194.608 52.7948 194.968 51.4549 194.968 49.991V28.9251H204.049L204.086 66.1439H195.005L194.968 62.757C193.678 64.0969 192.152 65.1638 190.39 65.9579C188.628 66.727 186.743 67.1116 184.733 67.1116C182.028 67.1116 179.559 66.4541 177.326 65.139C175.093 63.7992 173.307 62.0251 171.967 59.8167C170.652 57.5836 169.994 55.1024 169.994 52.373Z" fill="black"/>
<path d="M211.574 66.1439L211.537 28.9251H220.618L220.655 32.2376C221.921 30.8977 223.434 29.8432 225.196 29.074C226.958 28.28 228.856 27.883 230.89 27.883C232.255 27.883 233.62 28.0815 234.984 28.4785L231.411 37.6343C230.469 37.2621 229.526 37.076 228.583 37.076C227.119 37.076 225.779 37.4358 224.563 38.1554C223.372 38.8501 222.417 39.8054 221.697 41.0212C221.003 42.2122 220.655 43.5397 220.655 45.0037V66.1439H211.574Z" fill="black"/>
<path d="M260.491 54.9411L268.679 59.3701C266.967 61.7025 264.821 63.5759 262.24 64.9902C259.66 66.4045 256.844 67.1116 253.792 67.1116C250.367 67.1116 247.241 66.2308 244.412 64.4691C241.609 62.7074 239.363 60.3502 237.676 57.3975C236.013 54.42 235.182 51.1324 235.182 47.5345C235.182 44.8052 235.666 42.2619 236.634 39.9047C237.601 37.5227 238.929 35.4384 240.616 33.6519C242.328 31.8406 244.313 30.4263 246.571 29.409C248.829 28.3917 251.236 27.883 253.792 27.883C256.844 27.883 259.66 28.5902 262.24 30.0045C264.821 31.4188 266.967 33.3169 268.679 35.699L260.491 40.0908C259.623 39.0983 258.593 38.3291 257.402 37.7832C256.236 37.2373 255.032 36.9644 253.792 36.9644C252.005 36.9644 250.392 37.4606 248.953 38.4531C247.514 39.4208 246.373 40.7111 245.529 42.3239C244.685 43.9119 244.264 45.6488 244.264 47.5345C244.264 49.3955 244.685 51.1324 245.529 52.7452C246.373 54.3332 247.514 55.611 248.953 56.5787C250.392 57.5464 252.005 58.0302 253.792 58.0302C255.082 58.0302 256.31 57.7573 257.476 57.2114C258.642 56.6407 259.647 55.884 260.491 54.9411Z" fill="black"/>
<path d="M290.574 67.1116C287.15 67.1116 284.024 66.2308 281.195 64.4691C278.391 62.7074 276.146 60.3378 274.459 57.3603C272.796 54.3828 271.965 51.0951 271.965 47.4973C271.965 44.7928 272.449 42.2619 273.416 39.9047C274.384 37.5227 275.712 35.4384 277.399 33.6519C279.111 31.8406 281.096 30.4263 283.354 29.409C285.612 28.3917 288.019 27.883 290.574 27.883C293.477 27.883 296.132 28.5033 298.539 29.7439C300.971 30.9598 303.03 32.6346 304.717 34.7685C306.405 36.9024 307.633 39.334 308.402 42.0634C309.171 44.7928 309.345 47.6462 308.923 50.6237H281.716C282.064 52.0132 282.634 53.2662 283.428 54.3828C284.222 55.4746 285.227 56.3554 286.443 57.0253C287.659 57.6705 289.036 58.0054 290.574 58.0302C292.162 58.0551 293.601 57.6829 294.892 56.9137C296.207 56.1197 297.298 55.0527 298.167 53.7129L307.434 55.8716C305.921 59.1716 303.663 61.8762 300.661 63.9853C297.658 66.0695 294.296 67.1116 290.574 67.1116ZM281.418 43.8127H299.73C299.457 42.3239 298.874 40.984 297.981 39.793C297.112 38.5772 296.033 37.6095 294.743 36.89C293.453 36.1704 292.063 35.8106 290.574 35.8106C289.086 35.8106 287.708 36.1704 286.443 36.89C285.178 37.5847 284.098 38.54 283.205 39.7558C282.337 40.9468 281.741 42.2991 281.418 43.8127Z" fill="black"/>
<path d="M328.942 37.2188V23.1501H314.873V14.0687H328.942V0H338.023V14.0687H352.092V23.1501H338.023V37.2188H328.942Z" fill="#864EFF"/>
</svg>
