<svg width="246" height="235" viewBox="0 0 246 235" fill="none" xmlns="http://www.w3.org/2000/svg">
<g opacity="0.41">
<path d="M245.877 147.797C246.106 143.849 246.003 139.883 245.559 135.956C243.468 117.505 234.002 100.107 220.07 87.8304C215.099 83.4508 209.444 79.5271 206.209 73.7459C200.761 64.01 201.174 52.8209 194.413 43.2076C187.644 33.5836 177.78 26.0784 166.656 22.2237C133.489 10.731 87.0542 29.4435 91.235 69.4044C91.25 69.548 91.2666 69.7563 91.2838 70.0198C91.8397 78.3204 85.3248 85.2997 77.0333 85.4963C46.4323 86.2225 20.0914 109.816 14.4549 139.701C10.83 158.921 16.7654 179.987 30.8247 193.584C41.3196 203.734 55.4003 209.309 69.4879 213.14C97.7344 220.822 127.459 222.432 156.583 219.495C183.846 216.745 212.603 208.908 230.234 187.934C239.64 176.745 245.028 162.397 245.877 147.797Z" fill="#F1EBFF"/>
</g>
<g opacity="0.31">
<path d="M112.745 13.3777C113.372 9.49597 110.734 5.84079 106.852 5.21363C102.971 4.58647 99.3155 7.22481 98.6883 11.1065C98.0611 14.9883 100.699 18.6434 104.581 19.2706C108.463 19.8978 112.118 17.2594 112.745 13.3777Z" fill="#F1EBFF"/>
</g>
<g opacity="0.31">
<path d="M201.924 11.575C203.953 11.575 205.597 9.93028 205.597 7.9014C205.597 5.87252 203.953 4.22778 201.924 4.22778C199.895 4.22778 198.25 5.87252 198.25 7.9014C198.25 9.93028 199.895 11.575 201.924 11.575Z" fill="#F1EBFF"/>
</g>
<g opacity="0.31">
<path d="M77.0273 29.3737C77.6852 26.7358 76.0801 24.0639 73.4422 23.406C70.8042 22.7481 68.1324 24.3532 67.4745 26.9912C66.8166 29.6291 68.4217 32.3009 71.0596 32.9589C73.6976 33.6168 76.3694 32.0116 77.0273 29.3737Z" fill="#F1EBFF"/>
</g>
<g opacity="0.31">
<path d="M15.4817 217.919C21.6719 217.919 26.6901 212.9 26.6901 206.71C26.6901 200.52 21.6719 195.502 15.4817 195.502C9.29157 195.502 4.27344 200.52 4.27344 206.71C4.27344 212.9 9.29157 217.919 15.4817 217.919Z" fill="#F1EBFF"/>
</g>
<path opacity="0.47" d="M242.832 31.8268C246.027 25.6032 243.572 17.9678 237.348 14.7725C231.125 11.5777 219.165 11.8128 215.97 18.0364C212.775 24.2599 222.353 29.6014 226.259 35.405C231.706 43.5 239.637 38.0503 242.832 31.8268Z" fill="#F4EFFF"/>
<path opacity="0.47" d="M215.618 223.114C220.121 226.021 226.128 224.727 229.035 220.224C231.942 215.721 232.668 206.585 228.165 203.678C223.662 200.771 218.865 207.669 214.144 210.207C207.56 213.748 211.115 220.206 215.618 223.114Z" fill="#F1EBFF"/>
<path opacity="0.47" d="M31.8205 3.27071C26.8674 -1.32895 19.1238 -1.04241 14.5241 3.91074C9.92447 8.86388 7.01514 20.0486 11.9683 24.6483C16.9214 29.2479 24.3945 21.7357 30.8141 19.6212C39.7681 16.6717 36.7736 7.87036 31.8205 3.27071Z" fill="#F1EBFF"/>
<path opacity="0.47" d="M4.51929 56.7384C0.103344 66.3244 -1.10227 77.3757 1.01653 87.7073C3.50702 99.8534 11.069 109.185 8.44517 122.143C6.84697 130.035 6.44688 137.346 5.63653 145.156C3.97245 161.191 14.3838 175.321 27.3001 182.95C37.7907 189.147 50.0895 191.472 62.1505 191.307C73.0058 191.158 83.8419 189.154 94.3609 186.458C104.498 183.861 114.409 180.438 125.035 181.518C133.872 182.416 141.831 186.237 150.061 189.086C169.709 195.887 193.51 196.846 211.477 186.492C223.008 179.848 231.079 169.056 234.658 157.454C237.518 148.182 237.882 139.511 235.738 130.045C233.536 120.326 229.819 110.529 230.974 100.402C231.778 93.3449 235.005 86.5338 234.414 79.456C234.021 74.753 231.95 70.3408 229.418 66.3586C220.173 51.8179 204.692 42.0824 188.317 36.7185C172.906 31.6706 157.014 28.0146 140.97 29.2293C107.797 31.7402 101.035 26.4716 67.1341 19.2207C45.2483 14.5397 20.767 31.226 7.95993 50.5566C6.65308 52.527 5.50638 54.596 4.51929 56.7384Z" fill="#F1EBFF"/>
<path opacity="0.81" d="M27.3406 71.6776C26.6604 79.3322 29.242 87.2204 27.0836 94.8012C24.4999 103.877 17.0214 110.675 13.9728 119.586C9.46798 132.753 9.68436 147.507 15.1549 160.337C17.7916 166.521 21.643 172.267 26.9025 176.241C35.0108 182.368 45.6348 183.712 55.6263 182.935C70.4964 181.778 86.1871 175.341 101.138 177.096C109.388 178.065 111.908 186.995 116.169 192.885C120.988 199.547 127.551 204.779 134.807 208.263C148.171 214.678 164.21 215.286 177.868 209.468C192.451 203.258 205.161 188.091 204.326 170.939C203.939 163.004 200.763 155.123 202.233 147.326C204.079 137.541 211.451 128.625 216.794 120.653C222.694 111.848 226.266 101.348 226.966 90.6364C226.974 90.5148 226.982 90.3932 226.989 90.2722C228.084 71.7927 216.429 54.9387 198.843 49.1554C198.843 49.1554 161.427 36.8502 161.426 36.8497C123.46 24.3629 85.5272 24.7759 50.619 43.1006C43.0651 47.0661 30.7652 58.8807 28.2319 67.0276C27.7541 68.5647 27.4794 70.1163 27.3406 71.6776Z" fill="#F1EBFF"/>
<path opacity="0.58" d="M239.691 194.715C241.023 194.715 242.102 193.636 242.102 192.305C242.102 190.974 241.023 189.895 239.691 189.895C238.36 189.895 237.281 190.974 237.281 192.305C237.281 193.636 238.36 194.715 239.691 194.715Z" fill="#864EFF"/>
<path opacity="0.58" d="M128.355 6.87379C129.687 6.87379 130.766 5.79472 130.766 4.46363C130.766 3.13253 129.687 2.05347 128.355 2.05347C127.024 2.05347 125.945 3.13253 125.945 4.46363C125.945 5.79472 127.024 6.87379 128.355 6.87379Z" fill="#864EFF"/>
<path opacity="0.58" d="M41.2852 216.942C42.6163 216.942 43.6953 215.863 43.6953 214.531C43.6953 213.2 42.6163 212.121 41.2852 212.121C39.9541 212.121 38.875 213.2 38.875 214.531C38.875 215.863 39.9541 216.942 41.2852 216.942Z" fill="#864EFF"/>
<path opacity="0.58" d="M193.41 226.541C194.445 226.541 195.284 225.702 195.284 224.666C195.284 223.631 194.445 222.792 193.41 222.792C192.374 222.792 191.535 223.631 191.535 224.666C191.535 225.702 192.374 226.541 193.41 226.541Z" fill="#D3BFFF"/>
<path opacity="0.58" d="M30.6471 46.314C31.0908 46.314 31.4505 45.9544 31.4505 45.5107C31.4505 45.067 31.0908 44.7073 30.6471 44.7073C30.2034 44.7073 29.8438 45.067 29.8438 45.5107C29.8438 45.9544 30.2034 46.314 30.6471 46.314Z" fill="#864EFF"/>
<path opacity="0.58" d="M201.778 21.5462C201.444 23.1096 199.906 24.1058 198.343 23.7722C196.78 23.4385 195.783 21.9003 196.117 20.3374C196.451 18.774 197.989 17.7778 199.552 18.1115C201.115 18.4452 202.111 19.9829 201.778 21.5462Z" fill="#D3BFFF"/>
<path opacity="0.58" d="M47.1046 8.24648C46.9739 8.85973 46.3708 9.25018 45.7576 9.11949C45.1443 8.98881 44.7539 8.38573 44.8846 7.77248C45.0153 7.15923 45.6183 6.76878 46.2316 6.89947C46.8448 7.03015 47.2358 7.63323 47.1046 8.24648Z" fill="#D3BFFF"/>
<path opacity="0.58" d="M228.006 3.47741C227.895 3.99854 227.382 4.3306 226.861 4.2192C226.34 4.1078 226.008 3.59524 226.119 3.07411C226.231 2.55298 226.743 2.22091 227.264 2.33231C227.785 2.44372 228.117 2.95628 228.006 3.47741Z" fill="#864EFF"/>
<path opacity="0.58" d="M23.9162 233.581C23.8048 234.102 23.2923 234.434 22.7711 234.322C22.25 234.211 21.9179 233.699 22.0293 233.177C22.1407 232.656 22.6533 232.324 23.1744 232.436C23.6956 232.547 24.0276 233.06 23.9162 233.581Z" fill="#864EFF"/>
</svg>
