<svg width="231" height="178" viewBox="0 0 231 178" fill="none" xmlns="http://www.w3.org/2000/svg">
<g opacity="0.66">
<path d="M79.3415 52.5644L75.0792 52.2393C74.7531 49.0295 73.7338 46.004 72.1608 43.3282L75.4049 40.5442C77.0481 39.134 77.2371 36.659 75.8269 35.0158C74.4167 33.3726 71.9418 33.1835 70.2986 34.5937L67.0545 37.3772C64.6481 35.4159 61.8127 33.9494 58.6896 33.1396L59.0153 28.8774C59.1802 26.7184 57.5633 24.8347 55.4048 24.6698C53.2459 24.5048 51.3622 26.1212 51.1972 28.2802L50.8716 32.5424C47.6618 32.8686 44.6363 33.8878 41.9604 35.4609L39.1764 32.2168C37.7662 30.5736 35.2913 30.3845 33.6481 31.7947C32.0049 33.205 31.8158 35.6799 33.226 37.3231L36.01 40.5672C34.0487 42.9736 32.5822 45.809 31.7724 48.932L27.5102 48.6064C25.3512 48.4415 23.4676 50.0584 23.3026 52.2168C23.1376 54.3758 24.7541 56.2595 26.913 56.4244L31.1753 56.7501C31.5014 59.9599 32.5207 62.9854 34.0937 65.6612L30.8496 68.4452C29.2064 69.8554 29.0174 72.3304 30.4276 73.9736C31.8378 75.6168 34.3127 75.8059 35.9559 74.3957L39.2 71.6116C41.6064 73.573 44.4418 75.0394 47.5649 75.8492L47.2392 80.1115C47.0743 82.2704 48.6907 84.1541 50.8496 84.3191C53.0086 84.484 54.8923 82.8676 55.0572 80.7087L55.3823 76.4464C58.5921 76.1203 61.6177 75.101 64.2935 73.528L67.0775 76.7721C68.4877 78.4153 70.9627 78.6043 72.6059 77.1941C74.2491 75.7839 74.4381 73.3089 73.0279 71.6657L70.2445 68.4217C72.2058 66.0158 73.6722 63.1798 74.4821 60.0568L78.7443 60.3825C80.9033 60.5474 82.7869 58.931 82.9519 56.772C83.1174 54.6131 81.5004 52.7294 79.3415 52.5644ZM51.9117 70.4205C43.1162 69.7489 36.5301 62.0744 37.2017 53.2789C37.8734 44.4834 45.5478 37.8973 54.3433 38.5689C63.1388 39.2405 69.7249 46.915 69.0533 55.7105C68.3817 64.506 60.7072 71.0921 51.9117 70.4205Z" fill="white"/>
<path d="M170.414 172.759C169.898 172.759 169.385 172.635 168.913 172.39C168.139 171.988 167.567 171.308 167.304 170.477L166.538 168.058C164.559 168.26 162.593 168.091 160.679 167.553L159.51 169.805C158.68 171.403 156.705 172.028 155.106 171.199C154.331 170.797 153.76 170.118 153.496 169.286C153.233 168.454 153.309 167.57 153.711 166.796L154.879 164.544C153.339 163.289 152.068 161.778 151.094 160.044L148.676 160.81C146.958 161.354 145.119 160.399 144.576 158.682C144.313 157.85 144.389 156.966 144.79 156.191C145.193 155.417 145.872 154.845 146.703 154.582L149.122 153.816C148.92 151.838 149.089 149.871 149.627 147.957L147.376 146.789C146.601 146.387 146.03 145.708 145.766 144.875C145.503 144.044 145.579 143.159 145.981 142.385C146.383 141.611 147.062 141.039 147.894 140.775C148.725 140.513 149.61 140.588 150.385 140.99L152.636 142.158C153.891 140.619 155.402 139.348 157.136 138.373L156.37 135.955C155.826 134.238 156.781 132.398 158.498 131.855C159.329 131.591 160.214 131.668 160.989 132.069C161.763 132.472 162.335 133.151 162.598 133.983L163.364 136.401C165.343 136.198 167.309 136.369 169.223 136.906L170.392 134.654C171.222 133.056 173.196 132.43 174.797 133.26C176.394 134.09 177.02 136.066 176.191 137.665L175.023 139.915C176.563 141.171 177.834 142.682 178.808 144.416L181.227 143.65C182.059 143.387 182.943 143.463 183.717 143.864C184.492 144.266 185.063 144.946 185.326 145.778C185.87 147.495 184.915 149.334 183.198 149.878L180.78 150.644C180.981 152.622 180.812 154.589 180.275 156.503L182.526 157.671C184.125 158.501 184.75 160.477 183.921 162.075C183.519 162.85 182.84 163.422 182.008 163.685C181.177 163.948 180.292 163.872 179.517 163.47L177.266 162.302C176.01 163.842 174.5 165.113 172.766 166.087L173.532 168.505C173.795 169.337 173.719 170.222 173.317 170.996C172.915 171.77 172.236 172.342 171.404 172.605C171.079 172.707 170.746 172.759 170.414 172.759ZM167.291 166.887L168.325 170.154C168.503 170.713 168.887 171.17 169.407 171.439C169.928 171.71 170.522 171.76 171.081 171.584C171.641 171.406 172.097 171.022 172.367 170.502C172.638 169.981 172.689 169.387 172.512 168.828L171.477 165.562L171.874 165.353C173.769 164.355 175.392 162.99 176.698 161.295L176.971 160.94L180.012 162.518C180.533 162.788 181.127 162.839 181.687 162.663C182.246 162.486 182.703 162.102 182.972 161.581C183.53 160.507 183.109 159.179 182.035 158.621L178.994 157.043L179.127 156.615C179.761 154.571 179.943 152.458 179.669 150.335L179.611 149.89L182.877 148.856C184.031 148.49 184.673 147.254 184.308 146.1C184.131 145.541 183.747 145.084 183.225 144.814C182.706 144.543 182.111 144.492 181.552 144.669L178.286 145.704L178.077 145.308C177.079 143.412 175.714 141.789 174.019 140.483L173.663 140.21L175.242 137.169C175.799 136.094 175.379 134.767 174.305 134.209C173.229 133.65 171.902 134.072 171.345 135.146L169.767 138.188L169.339 138.055C167.295 137.42 165.182 137.239 163.058 137.513L162.614 137.571L161.579 134.304C161.403 133.745 161.018 133.288 160.498 133.019C159.977 132.748 159.384 132.697 158.823 132.874C157.67 133.24 157.027 134.476 157.393 135.63L158.428 138.896L158.031 139.104C156.136 140.102 154.513 141.467 153.207 143.163L152.934 143.518L149.892 141.939C149.372 141.669 148.778 141.618 148.219 141.795C147.659 141.972 147.203 142.356 146.933 142.877C146.663 143.398 146.611 143.992 146.788 144.551C146.965 145.11 147.349 145.566 147.87 145.836L150.911 147.415L150.778 147.843C150.143 149.886 149.961 151.999 150.236 154.123L150.294 154.567L147.027 155.602C146.468 155.778 146.011 156.163 145.742 156.684C145.472 157.204 145.421 157.799 145.598 158.358C145.964 159.512 147.2 160.155 148.354 159.788L151.62 158.754L151.828 159.15C152.826 161.045 154.191 162.668 155.886 163.974L156.241 164.247L154.663 167.289C154.393 167.809 154.341 168.403 154.518 168.963C154.696 169.522 155.08 169.979 155.601 170.248C156.675 170.806 158.003 170.385 158.56 169.311L160.139 166.27L160.567 166.403C162.61 167.038 164.724 167.219 166.846 166.945L167.291 166.887ZM164.939 163.897C163.095 163.897 161.265 163.455 159.58 162.58C156.815 161.145 154.775 158.72 153.834 155.75C152.894 152.78 153.166 149.622 154.601 146.857C156.037 144.092 158.462 142.052 161.432 141.111C164.402 140.17 167.559 140.443 170.325 141.878C173.09 143.314 175.131 145.739 176.071 148.709C177.011 151.679 176.739 154.837 175.303 157.602C173.868 160.367 171.443 162.407 168.473 163.347C167.312 163.715 166.123 163.897 164.939 163.897ZM164.964 141.634C163.889 141.634 162.809 141.799 161.755 142.133C159.058 142.987 156.855 144.84 155.552 147.351C154.248 149.862 154.001 152.73 154.855 155.427C155.709 158.124 157.563 160.327 160.073 161.63C162.585 162.934 165.454 163.18 168.149 162.327C170.846 161.472 173.049 159.619 174.352 157.108C175.656 154.597 175.903 151.729 175.049 149.033C174.195 146.335 172.342 144.132 169.831 142.829C168.302 142.035 166.639 141.634 164.964 141.634Z" fill="white"/>
<path d="M198.54 152.765C198.339 152.765 198.136 152.751 197.932 152.721C195.637 152.387 194.041 150.248 194.374 147.954L194.886 144.432C192.293 143.506 189.947 142.11 187.901 140.274L185.049 142.402C184.148 143.075 183.041 143.356 181.929 143.194C180.817 143.033 179.835 142.448 179.163 141.548C177.775 139.689 178.159 137.048 180.018 135.661L182.87 133.533C181.692 131.047 181.02 128.402 180.871 125.653L177.35 125.141C175.055 124.808 173.458 122.67 173.792 120.375C173.953 119.263 174.538 118.281 175.439 117.608C176.34 116.937 177.447 116.656 178.559 116.817L182.081 117.328C183.006 114.735 184.402 112.39 186.239 110.343L184.11 107.492C183.438 106.591 183.157 105.483 183.318 104.371C183.48 103.259 184.064 102.277 184.965 101.605C185.866 100.933 186.973 100.652 188.085 100.813C189.197 100.974 190.179 101.559 190.851 102.46L192.98 105.311C195.465 104.133 198.111 103.462 200.859 103.313L201.371 99.7914C201.705 97.4958 203.849 95.8981 206.138 96.2334C207.25 96.3946 208.232 96.9795 208.904 97.8798C209.576 98.7802 209.857 99.8883 209.696 101L209.184 104.522C211.777 105.447 214.123 106.843 216.169 108.68L219.021 106.551C220.879 105.164 223.52 105.547 224.908 107.407C226.295 109.265 225.911 111.906 224.052 113.293L221.201 115.422C222.378 117.906 223.05 120.552 223.199 123.301L226.722 123.813C229.017 124.146 230.613 126.285 230.279 128.579C229.946 130.875 227.802 132.473 225.513 132.137L221.991 131.625C221.065 134.219 219.669 136.564 217.833 138.61L219.961 141.462C221.348 143.32 220.965 145.961 219.106 147.349C218.206 148.021 217.097 148.301 215.986 148.14C214.874 147.978 213.891 147.394 213.219 146.493L211.091 143.642C208.606 144.82 205.96 145.491 203.212 145.64L202.7 149.162C202.396 151.254 200.594 152.765 198.54 152.765ZM187.975 138.882L188.302 139.188C190.421 141.171 192.893 142.642 195.649 143.562L196.074 143.704L195.434 148.108C195.186 149.818 196.376 151.412 198.086 151.661C199.797 151.909 201.391 150.72 201.64 149.009L202.279 144.605L202.727 144.59C205.631 144.493 208.42 143.785 211.015 142.488L211.416 142.287L214.078 145.854C214.579 146.525 215.311 146.96 216.14 147.081C216.969 147.203 217.794 146.992 218.466 146.491C219.851 145.456 220.137 143.489 219.103 142.104L216.441 138.537L216.747 138.21C218.729 136.092 220.201 133.62 221.121 130.863L221.263 130.438L225.667 131.077C227.38 131.324 228.971 130.136 229.221 128.426C229.469 126.716 228.279 125.121 226.569 124.872L222.164 124.233L222.15 123.785C222.052 120.88 221.345 118.092 220.047 115.497L219.847 115.096L223.413 112.434C224.798 111.4 225.084 109.433 224.05 108.047C223.549 107.376 222.817 106.94 221.988 106.82C221.159 106.698 220.334 106.909 219.662 107.41H219.662L216.096 110.072L215.769 109.766C213.65 107.783 211.178 106.312 208.421 105.392L207.997 105.25L208.636 100.846C208.757 100.017 208.547 99.1915 208.046 98.5204C207.545 97.8493 206.813 97.4133 205.984 97.2928C204.268 97.0433 202.679 98.2344 202.43 99.9445L201.791 104.349L201.343 104.363C198.44 104.461 195.651 105.168 193.055 106.466L192.655 106.666L189.992 103.1C189.492 102.429 188.759 101.993 187.931 101.873C187.103 101.753 186.276 101.962 185.605 102.463C184.934 102.964 184.498 103.696 184.378 104.525C184.257 105.354 184.467 106.18 184.968 106.851L187.63 110.417L187.324 110.744C185.341 112.863 183.869 115.335 182.95 118.091L182.808 118.516L178.404 117.877C177.576 117.758 176.749 117.967 176.078 118.467C175.407 118.968 174.971 119.7 174.851 120.529C174.602 122.24 175.792 123.834 177.502 124.083L181.906 124.722L181.921 125.17C182.018 128.073 182.726 130.862 184.024 133.458L184.225 133.859L180.657 136.521C179.987 137.021 179.551 137.754 179.43 138.583C179.31 139.411 179.52 140.237 180.021 140.909C180.522 141.579 181.254 142.015 182.083 142.136C182.911 142.256 183.737 142.046 184.409 141.545L187.975 138.882ZM202.054 139.96C197.328 139.96 192.659 137.811 189.621 133.742C184.513 126.897 185.926 117.172 192.771 112.063C196.087 109.589 200.17 108.552 204.262 109.148C208.357 109.743 211.974 111.897 214.449 115.213C216.923 118.528 217.959 122.609 217.364 126.703C216.769 130.798 214.616 134.416 211.3 136.891C208.525 138.961 205.276 139.96 202.054 139.96ZM202.005 110.055C198.92 110.055 195.929 111.043 193.412 112.922C187.04 117.677 185.725 126.729 190.48 133.101C195.236 139.473 204.287 140.786 210.66 136.032C213.746 133.729 215.75 130.361 216.304 126.55C216.858 122.739 215.893 118.94 213.59 115.853C211.287 112.767 207.92 110.762 204.108 110.209C203.405 110.106 202.702 110.055 202.005 110.055Z" fill="white"/>
</g>
<g opacity="0.81">
<path d="M129.286 154.922H118.284C117.987 154.922 117.748 154.682 117.748 154.386C117.748 154.09 117.987 153.85 118.284 153.85H129.286C129.582 153.85 129.821 154.09 129.821 154.386C129.821 154.682 129.582 154.922 129.286 154.922Z" fill="white"/>
<path d="M129.286 166.359H118.284C117.987 166.359 117.748 166.119 117.748 165.823C117.748 165.527 117.987 165.287 118.284 165.287H129.286C129.582 165.287 129.821 165.527 129.821 165.823C129.821 166.119 129.582 166.359 129.286 166.359Z" fill="white"/>
<path d="M137.594 177.908H69.6434C68.8427 177.908 68.1914 177.257 68.1914 176.456V141.188C68.1914 140.387 68.8427 139.735 69.6434 139.735H137.594C138.395 139.735 139.046 140.387 139.046 141.188V176.456C139.046 177.257 138.395 177.908 137.594 177.908ZM69.6434 140.807C69.4334 140.807 69.2626 140.978 69.2626 141.188V176.457C69.2626 176.666 69.4334 176.837 69.6434 176.837H137.594C137.804 176.837 137.975 176.666 137.975 176.457V141.188C137.975 140.978 137.804 140.807 137.594 140.807H69.6434Z" fill="white"/>
<path opacity="0.66" d="M137.594 177.908H69.6434C68.8427 177.908 68.1914 177.257 68.1914 176.456V141.188C68.1914 140.387 68.8427 139.735 69.6434 139.735H137.594C138.395 139.735 139.046 140.387 139.046 141.188V176.456C139.046 177.257 138.395 177.908 137.594 177.908ZM69.6434 140.807C69.4334 140.807 69.2626 140.978 69.2626 141.188V176.457C69.2626 176.666 69.4334 176.837 69.6434 176.837H137.594C137.804 176.837 137.975 176.666 137.975 176.457V141.188C137.975 140.978 137.804 140.807 137.594 140.807H69.6434Z" fill="white"/>
<path d="M129.288 149.372H76.8598C76.5642 149.372 76.3242 149.132 76.3242 148.836C76.3242 148.54 76.5642 148.301 76.8598 148.301H129.288C129.584 148.301 129.824 148.54 129.824 148.836C129.824 149.132 129.584 149.372 129.288 149.372Z" fill="white"/>
<path d="M129.288 160.472H76.8598C76.5642 160.472 76.3242 160.233 76.3242 159.937C76.3242 159.641 76.5642 159.401 76.8598 159.401H129.288C129.584 159.401 129.824 159.641 129.824 159.937C129.824 160.232 129.584 160.472 129.288 160.472Z" fill="white"/>
<path d="M105.126 154.922H76.8598C76.5642 154.922 76.3242 154.682 76.3242 154.386C76.3242 154.09 76.5642 153.85 76.8598 153.85H105.126C105.422 153.85 105.662 154.09 105.662 154.386C105.662 154.682 105.422 154.922 105.126 154.922Z" fill="white"/>
<path d="M105.126 166.359H76.8598C76.5642 166.359 76.3242 166.119 76.3242 165.823C76.3242 165.527 76.5642 165.287 76.8598 165.287H105.126C105.422 165.287 105.662 165.527 105.662 165.823C105.662 166.119 105.422 166.359 105.126 166.359Z" fill="white"/>
<path d="M95.9226 171.657H76.8598C76.5642 171.657 76.3242 171.417 76.3242 171.121C76.3242 170.825 76.5642 170.586 76.8598 170.586H95.9226C96.2182 170.586 96.4581 170.825 96.4581 171.121C96.4581 171.417 96.2182 171.657 95.9226 171.657Z" fill="white"/>
</g>
<g opacity="0.81">
<path d="M24.0205 120.63H11.6547C11.3591 120.63 11.1191 120.391 11.1191 120.095C11.1191 119.798 11.3591 119.559 11.6547 119.559H24.0205C24.3161 119.559 24.556 119.798 24.556 120.095C24.556 120.391 24.3161 120.63 24.0205 120.63Z" fill="white"/>
<path d="M24.0205 107.776H11.6547C11.3591 107.776 11.1191 107.537 11.1191 107.241C11.1191 106.944 11.3591 106.705 11.6547 106.705H24.0205C24.3161 106.705 24.556 106.944 24.556 107.241C24.556 107.537 24.3161 107.776 24.0205 107.776Z" fill="white"/>
<path d="M78.8031 136.495H2.20394C1.40323 136.495 0.751953 135.843 0.751953 135.042V95.1762C0.751953 94.3754 1.40323 93.7236 2.20394 93.7236H78.8031C79.6038 93.7236 80.2556 94.3754 80.2556 95.1762V135.042C80.2551 135.843 79.6038 136.495 78.8031 136.495ZM2.20394 94.7954C1.99399 94.7954 1.82313 94.9662 1.82313 95.1767V135.043C1.82313 135.253 1.99399 135.424 2.20394 135.424H78.8031C79.013 135.424 79.1844 135.253 79.1844 135.043V95.1767C79.1844 94.9662 79.0136 94.7954 78.8031 94.7954H2.20394Z" fill="white"/>
<path opacity="0.66" d="M78.8031 136.495H2.20394C1.40323 136.495 0.751953 135.843 0.751953 135.042V95.1762C0.751953 94.3754 1.40323 93.7236 2.20394 93.7236H78.8031C79.6038 93.7236 80.2556 94.3754 80.2556 95.1762V135.042C80.2551 135.843 79.6038 136.495 78.8031 136.495ZM2.20394 94.7954C1.99399 94.7954 1.82313 94.9662 1.82313 95.1767V135.043C1.82313 135.253 1.99399 135.424 2.20394 135.424H78.8031C79.013 135.424 79.1844 135.253 79.1844 135.043V95.1767C79.1844 94.9662 79.0136 94.7954 78.8031 94.7954H2.20394Z" fill="white"/>
<path d="M70.581 126.868H11.6547C11.3591 126.868 11.1191 126.628 11.1191 126.332C11.1191 126.036 11.3591 125.797 11.6547 125.797H70.581C70.8766 125.797 71.1166 126.036 71.1166 126.332C71.1166 126.628 70.8766 126.868 70.581 126.868Z" fill="white"/>
<path d="M70.581 114.392H11.6547C11.3591 114.392 11.1191 114.152 11.1191 113.856C11.1191 113.56 11.3591 113.321 11.6547 113.321H70.581C70.8766 113.321 71.1166 113.56 71.1166 113.856C71.1166 114.152 70.8766 114.392 70.581 114.392Z" fill="white"/>
<path d="M70.5801 120.631H38.811C38.5153 120.631 38.2754 120.391 38.2754 120.095C38.2754 119.799 38.5153 119.559 38.811 119.559H70.5801C70.8757 119.559 71.1157 119.799 71.1157 120.095C71.1157 120.391 70.8757 120.631 70.5801 120.631Z" fill="white"/>
<path d="M70.5801 107.776H38.811C38.5153 107.776 38.2754 107.537 38.2754 107.241C38.2754 106.944 38.5153 106.705 38.811 106.705H70.5801C70.8757 106.705 71.1157 106.944 71.1157 107.241C71.1157 107.537 70.8757 107.776 70.5801 107.776Z" fill="white"/>
<path d="M70.58 101.822H49.1547C48.8591 101.822 48.6191 101.582 48.6191 101.286C48.6191 100.99 48.8591 100.75 49.1547 100.75H70.58C70.8756 100.75 71.1156 100.99 71.1156 101.286C71.1156 101.582 70.8756 101.822 70.58 101.822Z" fill="white"/>
</g>
<path opacity="0.14" d="M168.023 158.137L109.42 123.392C108.948 123.113 108.793 122.504 109.073 122.033L156.381 42.2389C156.66 41.7676 157.268 41.6123 157.74 41.8918L216.343 76.6372C216.815 76.9163 216.97 77.5247 216.69 77.996L169.382 157.79C169.103 158.261 168.494 158.416 168.023 158.137Z" fill="#864EFF"/>
<path d="M166.502 154.939L107.898 120.194C107.427 119.915 107.271 119.307 107.551 118.835L154.86 39.0414C155.139 38.5701 155.747 38.4148 156.219 38.6943L214.822 73.4397C215.293 73.7188 215.449 74.3272 215.169 74.7985L167.86 154.592C167.581 155.063 166.973 155.219 166.502 154.939Z" fill="#AC89F9"/>
<path opacity="0.14" d="M183.336 153.962L116.335 141.612C115.797 141.513 115.441 140.995 115.54 140.457L132.356 49.2299C132.455 48.6916 132.972 48.3354 133.511 48.4345L200.511 60.7847C201.05 60.8838 201.406 61.4012 201.307 61.9394L184.491 153.167C184.392 153.705 183.875 154.061 183.336 153.962Z" fill="#864EFF"/>
<path d="M131.105 45.6984L113.928 138.873L182.876 151.584L200.054 58.4098L131.105 45.6984Z" fill="white"/>
<path opacity="0.39" d="M181.905 151.396L114.904 139.046C114.365 138.947 114.009 138.429 114.108 137.891L130.924 46.6638C131.023 46.125 131.541 45.7694 132.079 45.8685L199.08 58.2187C199.618 58.3178 199.974 58.8351 199.875 59.3734L183.059 150.601C182.96 151.139 182.443 151.495 181.905 151.396Z" fill="#AC89F9"/>
<path d="M189.621 69.3747C189.589 69.3747 189.556 69.372 189.522 69.3655L172.751 66.2741C172.46 66.2206 172.268 65.941 172.321 65.6501C172.376 65.3593 172.651 65.1676 172.945 65.2206L189.717 68.312C190.008 68.3656 190.2 68.6452 190.146 68.936C190.099 69.1942 189.874 69.3747 189.621 69.3747Z" fill="white"/>
<path d="M188.632 74.7326C188.6 74.7326 188.567 74.7299 188.534 74.7235L171.763 71.632C171.472 71.5785 171.28 71.2989 171.333 71.0081C171.387 70.7178 171.663 70.525 171.957 70.5785L188.729 73.6705C189.019 73.724 189.212 74.0036 189.158 74.2944C189.111 74.5521 188.886 74.7326 188.632 74.7326Z" fill="white"/>
<path d="M187.559 80.5561C187.526 80.5561 187.494 80.5534 187.461 80.547L170.688 77.4556C170.398 77.402 170.205 77.1224 170.259 76.8322C170.313 76.5413 170.588 76.3496 170.883 76.4026L187.654 79.494C187.945 79.5476 188.138 79.8272 188.084 80.118C188.037 80.3756 187.812 80.5561 187.559 80.5561Z" fill="white"/>
<path opacity="0.14" d="M161.611 85.5076L132.875 80.2106C132.292 80.103 131.907 79.5433 132.014 78.9606L137.711 48.057C137.818 47.4737 138.378 47.0886 138.961 47.1957L167.696 52.4927C168.279 52.6004 168.664 53.1601 168.557 53.7428L162.861 84.6464C162.754 85.2297 162.194 85.6153 161.611 85.5076Z" fill="#864EFF"/>
<path d="M160.553 83.7133L133.159 78.6637C132.575 78.5561 132.19 77.9964 132.297 77.4136L137.691 48.1554C137.798 47.5721 138.358 47.1865 138.941 47.2941L166.336 52.3437C166.919 52.4514 167.304 53.011 167.197 53.5938L161.804 82.852C161.696 83.4353 161.137 83.8209 160.553 83.7133Z" fill="#BB9BFF"/>
<path opacity="0.07" d="M166.69 56.3556L137.184 50.9167L137.698 48.1246C137.803 47.5585 138.346 47.1847 138.912 47.2886L166.405 52.3563C166.951 52.457 167.312 52.9808 167.211 53.5261L166.69 56.3556Z" fill="#F4EFFF"/>
<path d="M145.437 65.468C145.23 65.468 145.019 65.4493 144.808 65.4102L144.399 65.3346C142.23 64.9346 140.79 62.8441 141.19 60.6745L142.22 55.0834C142.3 54.6469 142.723 54.3577 143.156 54.4391C143.592 54.5195 143.88 54.9383 143.801 55.3748L142.77 60.9658C142.531 62.2641 143.392 63.5152 144.69 63.7546L145.099 63.8302C146.109 64.0176 147.08 63.3465 147.266 62.3369L149.875 48.1856C150.067 47.1444 149.376 46.1407 148.334 45.9484L147.635 45.8199C146.526 45.6158 145.464 46.3501 145.26 47.4555L145.196 47.8042C145.115 48.2413 144.691 48.5294 144.26 48.4491C143.824 48.3687 143.535 47.9499 143.615 47.5134L143.68 47.1642C144.045 45.1868 145.951 43.8746 147.926 44.2399L148.625 44.3684C150.538 44.7208 151.807 46.5638 151.455 48.4764L148.846 62.6278C148.538 64.2972 147.077 65.468 145.437 65.468Z" fill="#864EFF"/>
<path d="M148.226 53.5848C148.21 53.5848 148.194 53.5837 148.177 53.5805L137.471 51.6069C137.326 51.5801 137.23 51.4408 137.256 51.2952C137.284 51.1495 137.421 51.0515 137.569 51.0804L148.275 53.054C148.42 53.0808 148.516 53.2206 148.489 53.3663C148.466 53.4948 148.353 53.5848 148.226 53.5848Z" fill="white"/>
<path d="M180.964 108.931C180.932 108.931 180.899 108.928 180.866 108.922L129.618 99.4752C129.327 99.4216 129.135 99.1426 129.189 98.8512C129.242 98.561 129.517 98.3671 129.813 98.4217L181.06 107.868C181.351 107.922 181.543 108.201 181.49 108.492C181.442 108.751 181.217 108.931 180.964 108.931Z" fill="white"/>
<path d="M177.3 128.808C177.268 128.808 177.235 128.806 177.202 128.799L125.954 119.353C125.663 119.3 125.471 119.021 125.525 118.729C125.578 118.439 125.854 118.244 126.149 118.3L177.397 127.746C177.687 127.799 177.88 128.078 177.826 128.37C177.778 128.629 177.553 128.808 177.3 128.808Z" fill="white"/>
<path d="M152.112 113.889C152.08 113.889 152.047 113.886 152.014 113.88L127.788 109.414C127.497 109.361 127.305 109.082 127.359 108.79C127.413 108.5 127.688 108.304 127.983 108.361L152.208 112.826C152.499 112.88 152.691 113.159 152.638 113.45C152.591 113.709 152.365 113.889 152.112 113.889Z" fill="white"/>
<path d="M155.448 95.7797C155.416 95.7797 155.384 95.7771 155.35 95.7706L131.124 91.3054C130.833 91.2519 130.641 90.9723 130.694 90.682C130.749 90.3912 131.024 90.2 131.318 90.2524L155.544 94.7177C155.835 94.7712 156.027 95.0503 155.974 95.3416C155.927 95.5998 155.702 95.7797 155.448 95.7797Z" fill="white"/>
<path d="M179.146 118.792C179.114 118.792 179.081 118.79 179.048 118.783L155.966 114.529C155.675 114.475 155.483 114.196 155.536 113.905C155.59 113.614 155.865 113.42 156.16 113.475L179.243 117.73C179.533 117.783 179.726 118.062 179.672 118.354C179.625 118.612 179.4 118.792 179.146 118.792Z" fill="white"/>
<path d="M173.721 13.5199H145.238C144.252 13.5199 143.453 12.7208 143.453 11.7348V2.20822C143.453 1.2222 144.252 0.423096 145.238 0.423096H173.721C174.707 0.423096 175.506 1.2222 175.506 2.20822V11.7348C175.506 12.7208 174.707 13.5199 173.721 13.5199Z" fill="#BB9BFF"/>
<path d="M195.178 27.796H155.336C154.35 27.796 153.551 26.9969 153.551 26.0109V11.8435C153.551 10.8575 154.35 10.0583 155.336 10.0583H195.178C196.164 10.0583 196.963 10.8575 196.963 11.8435V26.0109C196.963 26.9964 196.164 27.796 195.178 27.796Z" fill="#AC89F9"/>
<path d="M164.158 24.0454H208.277C209.61 24.0454 210.701 25.1359 210.701 26.469V39.9846C210.701 41.3177 209.61 42.4081 208.277 42.4081H164.158C162.825 42.4081 161.734 41.3177 161.734 39.9846V26.469C161.734 25.1359 162.825 24.0454 164.158 24.0454Z" fill="white"/>
<path opacity="0.74" d="M164.158 24.0454H208.277C209.61 24.0454 210.701 25.1359 210.701 26.469V39.9846C210.701 41.3177 209.61 42.4081 208.277 42.4081H164.158C162.825 42.4081 161.734 41.3177 161.734 39.9846V26.469C161.734 25.1359 162.825 24.0454 164.158 24.0454Z" fill="#C3A7FF"/>
<path d="M195.155 35.3778C193.982 35.3778 193.027 34.4234 193.027 33.2504C193.027 32.0775 193.981 31.123 195.155 31.123C196.328 31.123 197.282 32.0775 197.282 33.2504C197.282 34.4234 196.328 35.3778 195.155 35.3778ZM195.155 31.6586C194.277 31.6586 193.563 32.3726 193.563 33.2504C193.563 34.1282 194.277 34.8422 195.155 34.8422C196.033 34.8422 196.746 34.1282 196.746 33.2504C196.746 32.3726 196.033 31.6586 195.155 31.6586Z" fill="white"/>
<path d="M186.379 35.3778C185.206 35.3778 184.252 34.4234 184.252 33.2504C184.252 32.0775 185.206 31.123 186.379 31.123C187.553 31.123 188.507 32.0775 188.507 33.2504C188.506 34.4234 187.552 35.3778 186.379 35.3778ZM186.379 31.6586C185.501 31.6586 184.788 32.3726 184.788 33.2504C184.788 34.1282 185.501 34.8422 186.379 34.8422C187.257 34.8422 187.971 34.1282 187.971 33.2504C187.971 32.3726 187.257 31.6586 186.379 31.6586Z" fill="white"/>
<path d="M178.198 35.3778C177.025 35.3778 176.07 34.4234 176.07 33.2504C176.07 32.0775 177.024 31.123 178.198 31.123C179.371 31.123 180.325 32.0775 180.325 33.2504C180.325 34.4234 179.371 35.3778 178.198 35.3778ZM178.198 31.6586C177.32 31.6586 176.606 32.3726 176.606 33.2504C176.606 34.1282 177.32 34.8422 178.198 34.8422C179.076 34.8422 179.789 34.1282 179.789 33.2504C179.789 32.3726 179.076 31.6586 178.198 31.6586Z" fill="white"/>
<path d="M56.8322 1.70654H125.196C126.573 1.70654 127.689 2.82271 127.689 4.19972V104.893C127.689 109.643 123.838 113.494 119.088 113.494H71.6204C61.4982 113.494 53.293 105.288 53.293 95.1661V5.24573C53.293 3.29082 54.8772 1.70654 56.8322 1.70654Z" fill="white"/>
<path opacity="0.39" d="M54.1614 1.70654H126.351C127.089 1.70654 127.687 2.3048 127.687 3.04284V105.293C127.687 109.822 124.016 113.493 119.487 113.493H69.9897C60.7673 113.493 53.291 106.017 53.291 96.7948V2.57634C53.2916 2.09592 53.6809 1.70654 54.1614 1.70654Z" fill="#C3A7FF"/>
<path opacity="0.39" d="M60.4912 1.70654H126.631C127.215 1.70654 127.688 2.17947 127.688 2.76326V105.573C127.688 109.947 124.142 113.493 119.767 113.493H76.3189C67.2514 113.493 59.9004 106.142 59.9004 97.0744V2.29677C59.9004 1.97059 60.165 1.70654 60.4912 1.70654Z" fill="#864EFF"/>
<path d="M70.2812 113.475V113.494H130.036C136.914 113.494 142.489 107.918 142.489 101.041V96.3102H82.0584V101.041C82.0584 107.691 76.8444 113.124 70.2812 113.475Z" fill="#7331FF"/>
<g opacity="0.28">
<path d="M78.2031 113.475V113.494H131.402C137.525 113.494 142.489 107.918 142.489 101.041V96.3102H88.6884V101.041C88.6884 107.691 84.0464 113.124 78.2031 113.475Z" fill="#864EFF"/>
</g>
<path d="M116.397 83.4253H73.4321C73.1364 83.4253 72.8965 83.1854 72.8965 82.8897C72.8965 82.5941 73.1364 82.3541 73.4321 82.3541H116.397C116.693 82.3541 116.932 82.5941 116.932 82.8897C116.932 83.1854 116.693 83.4253 116.397 83.4253Z" fill="white"/>
<path d="M117.298 65.3352H72.6293C72.3337 65.3352 72.0938 65.0953 72.0938 64.7996C72.0938 64.504 72.3337 64.264 72.6293 64.264H117.298C117.594 64.264 117.834 64.504 117.834 64.7996C117.834 65.0958 117.594 65.3352 117.298 65.3352Z" fill="white"/>
<path d="M94.9131 74.3728H72.0883C71.7927 74.3728 71.5527 74.1329 71.5527 73.8372C71.5527 73.5416 71.7927 73.3016 72.0883 73.3016H94.9131C95.2087 73.3016 95.4487 73.5416 95.4487 73.8372C95.4487 74.1329 95.2087 74.3728 94.9131 74.3728Z" fill="white"/>
<path d="M93.1833 74.3728H73.8168C73.5212 74.3728 73.2812 74.1329 73.2812 73.8372C73.2812 73.5416 73.5212 73.3016 73.8168 73.3016H93.1833C93.4789 73.3016 93.7189 73.5416 93.7189 73.8372C93.7189 74.1329 93.4795 74.3728 93.1833 74.3728Z" fill="white"/>
<path d="M102.344 45.9934H72.9399C72.6442 45.9934 72.4043 45.7535 72.4043 45.4578C72.4043 45.1622 72.6442 44.9222 72.9399 44.9222H102.344C102.64 44.9222 102.88 45.1622 102.88 45.4578C102.88 45.7535 102.64 45.9934 102.344 45.9934Z" fill="white"/>
<path d="M115.975 45.9934H107.018C106.722 45.9934 106.482 45.7535 106.482 45.4578C106.482 45.1622 106.722 44.9222 107.018 44.9222H115.975C116.271 44.9222 116.511 45.1622 116.511 45.4578C116.511 45.7535 116.271 45.9934 115.975 45.9934Z" fill="white"/>
<path d="M117.296 55.0304H85.4555C85.1599 55.0304 84.9199 54.7905 84.9199 54.4948C84.9199 54.1992 85.1599 53.9592 85.4555 53.9592H117.296C117.593 53.9592 117.832 54.1992 117.832 54.4948C117.832 54.7905 117.593 55.0304 117.296 55.0304Z" fill="white"/>
<path d="M82.3128 55.0304H72.6293C72.3337 55.0304 72.0938 54.7905 72.0938 54.4948C72.0938 54.1992 72.3337 53.9592 72.6293 53.9592H82.3128C82.6085 53.9592 82.8484 54.1992 82.8484 54.4948C82.8484 54.7905 82.6085 55.0304 82.3128 55.0304Z" fill="white"/>
<path d="M116.397 38.3408H73.4321C73.1364 38.3408 72.8965 38.1009 72.8965 37.8052C72.8965 37.5096 73.1364 37.2697 73.4321 37.2697H116.397C116.693 37.2697 116.932 37.5096 116.932 37.8052C116.932 38.1009 116.693 38.3408 116.397 38.3408Z" fill="white"/>
<path d="M116.397 20.2509H73.4321C73.1364 20.2509 72.8965 20.0109 72.8965 19.7153C72.8965 19.4196 73.1364 19.1797 73.4321 19.1797H116.397C116.693 19.1797 116.932 19.4196 116.932 19.7153C116.932 20.0109 116.693 20.2509 116.397 20.2509Z" fill="white"/>
<path d="M89.201 29.2885H72.9399C72.6442 29.2885 72.4043 29.0485 72.4043 28.7529C72.4043 28.4572 72.6442 28.2173 72.9399 28.2173H89.201C89.4966 28.2173 89.7366 28.4572 89.7366 28.7529C89.7366 29.0485 89.4971 29.2885 89.201 29.2885Z" fill="white"/>
<path d="M116.068 29.2885H96.7016C96.406 29.2885 96.166 29.0485 96.166 28.7529C96.166 28.4572 96.406 28.2173 96.7016 28.2173H116.068C116.364 28.2173 116.604 28.4572 116.604 28.7529C116.604 29.0485 116.364 29.2885 116.068 29.2885Z" fill="white"/>
<path opacity="0.21" d="M173.839 91.8752C187.077 78.6371 187.077 57.1739 173.839 43.9358C160.601 30.6977 139.138 30.6977 125.899 43.9358C112.661 57.1739 112.661 78.6371 125.899 91.8752C139.138 105.113 160.601 105.113 173.839 91.8752Z" fill="white"/>
<path opacity="0.76" d="M123.308 70.3411C122.125 70.3411 121.166 69.3819 121.166 68.1988C121.166 51.0979 135.079 37.1859 152.179 37.1859C153.362 37.1859 154.321 38.1452 154.321 39.3283C154.321 40.5114 153.362 41.4706 152.179 41.4706C137.44 41.4706 125.451 53.4609 125.451 68.1988C125.451 69.3819 124.491 70.3411 123.308 70.3411Z" fill="white"/>
<path opacity="0.58" d="M149.872 102.875C130.59 102.875 114.902 87.1875 114.902 67.9051C114.902 48.6228 130.59 32.9353 149.872 32.9353C169.154 32.9353 184.842 48.6228 184.842 67.9051C184.842 87.1875 169.154 102.875 149.872 102.875ZM149.872 35.0777C131.771 35.0777 117.045 49.8043 117.045 67.9051C117.045 86.0059 131.771 100.733 149.872 100.733C167.974 100.733 182.7 86.0059 182.7 67.9051C182.7 49.8043 167.974 35.0777 149.872 35.0777Z" fill="#864EFF"/>
<path d="M181.026 92.1931C181.075 92.1433 181.132 92.1031 181.186 92.0618C186.349 85.3793 189.426 77.0032 189.426 67.9051C189.426 46.0578 171.715 28.3474 149.868 28.3474C128.021 28.3474 110.311 46.0578 110.311 67.9051C110.311 89.7524 128.021 107.463 149.868 107.463C158.928 107.463 167.268 104.406 173.937 99.2816L178.513 94.7055L181.026 92.1931ZM149.868 101.804C131.147 101.804 115.97 86.6267 115.97 67.9051C115.97 49.1835 131.147 34.0065 149.868 34.0065C168.59 34.0065 183.767 49.1835 183.767 67.9051C183.767 86.6267 168.59 101.804 149.868 101.804Z" fill="#864EFF"/>
<path d="M149.869 107.999C127.761 107.999 109.775 90.0129 109.775 67.9053C109.775 45.7977 127.761 27.812 149.869 27.812C171.976 27.812 189.962 45.7982 189.962 67.9053C189.962 76.8507 187.074 85.3173 181.61 92.3893L181.51 92.4889C181.457 92.5285 181.429 92.5467 181.406 92.5708L174.264 99.706C167.204 105.132 158.767 107.999 149.869 107.999ZM149.869 28.8827C128.352 28.8827 110.847 46.3879 110.847 67.9047C110.847 89.4216 128.352 106.927 149.869 106.927C158.518 106.927 166.718 104.144 173.584 98.878L180.647 91.814C180.698 91.7637 180.751 91.7198 180.807 91.6775C186.095 84.8058 188.891 76.5872 188.891 67.9047C188.891 46.3879 171.385 28.8827 149.869 28.8827ZM149.869 102.339C130.881 102.339 115.434 86.8925 115.434 67.9053C115.434 48.918 130.881 33.4711 149.869 33.4711C168.856 33.4711 184.303 48.918 184.303 67.9053C184.303 86.8925 168.856 102.339 149.869 102.339ZM149.869 34.5422C131.472 34.5422 116.506 49.5088 116.506 67.9053C116.506 86.3018 131.472 101.268 149.869 101.268C168.265 101.268 183.232 86.3018 183.232 67.9053C183.232 49.5083 168.265 34.5422 149.869 34.5422Z" fill="#864EFF"/>
<path d="M180.048 98.378L178.514 96.8436C177.923 96.2528 177.923 95.2957 178.514 94.705L173.937 99.281L173.863 99.3555C173.272 99.9462 173.272 100.903 173.863 101.494L175.725 103.356C176.339 102.327 178.135 100.312 180.048 98.378Z" fill="#9C6FFC"/>
<path d="M178.513 94.7055C177.923 95.2963 177.923 96.2539 178.513 96.8442L180.048 98.3786C181.899 96.5067 183.852 94.7189 184.947 93.9766L183.164 92.1936C182.624 91.6532 181.779 91.6136 181.187 92.0624C181.132 92.1036 181.076 92.1438 181.026 92.1936L178.513 94.7055Z" fill="#9C6FFC"/>
<path opacity="0.43" d="M178.513 94.7055C177.923 95.2963 177.923 96.2539 178.513 96.8442L180.048 98.3786C181.899 96.5067 183.852 94.7189 184.947 93.9766L183.164 92.1936C182.624 91.6532 181.779 91.6136 181.187 92.0624C181.132 92.1036 181.076 92.1438 181.026 92.1936L178.513 94.7055Z" fill="#864EFF"/>
<path d="M213.648 121.806L185.792 93.6457C185.691 93.5444 185.386 93.6789 184.948 93.9761C183.852 94.719 181.899 96.5068 180.048 98.3782C178.136 100.312 176.34 102.328 175.725 103.357C175.525 103.692 175.448 103.924 175.536 104.013L203.392 132.173C206.224 135.036 210.816 135.036 213.648 132.173C216.48 129.31 216.48 124.669 213.648 121.806Z" fill="#BB9BFF"/>
<path opacity="0.14" d="M213.65 121.806L185.794 93.6456C185.419 93.2664 182.245 96.1104 179.519 98.9206C177.2 101.312 210.819 135.036 213.65 132.173C216.483 129.31 216.483 124.669 213.65 121.806Z" fill="#864EFF"/>
<path d="M110.785 86.8428H19.2174C13.8679 86.8428 9.53125 82.5061 9.53125 77.1566C9.53125 71.8071 13.8679 67.4705 19.2174 67.4705H110.785C116.135 67.4705 120.471 71.8071 120.471 77.1566C120.472 82.5061 116.135 86.8428 110.785 86.8428Z" fill="white"/>
<path d="M110.785 86.8428H95.8921L95.8203 67.47H110.786C116.135 67.47 120.472 71.8067 120.472 77.1561C120.472 82.5062 116.135 86.8428 110.785 86.8428Z" fill="#BB9BFF"/>
<path d="M107.018 80.551C104.682 80.551 102.781 78.6502 102.781 76.314C102.781 73.9777 104.682 72.0769 107.018 72.0769C109.355 72.0769 111.255 73.9777 111.255 76.314C111.255 77.4457 110.815 78.5099 110.014 79.3101C109.214 80.1102 108.15 80.551 107.018 80.551ZM107.018 73.1486C105.273 73.1486 103.852 74.5685 103.852 76.3145C103.852 78.06 105.272 79.4804 107.018 79.4804C107.864 79.4804 108.659 79.151 109.257 78.5533C109.855 77.9555 110.184 77.1602 110.184 76.3145C110.184 74.5685 108.764 73.1486 107.018 73.1486Z" fill="white"/>
<path d="M112.979 82.8465C112.842 82.8465 112.705 82.7941 112.6 82.6896L109.239 79.3283C109.03 79.1188 109.03 78.7803 109.239 78.5709C109.449 78.3615 109.788 78.362 109.996 78.5709L113.357 81.9323C113.567 82.1417 113.567 82.4802 113.357 82.6896C113.253 82.7941 113.116 82.8465 112.979 82.8465Z" fill="white"/>
<path d="M112.096 106.857H66.5174C63.3274 106.857 60.7416 104.271 60.7416 101.081V97.2935C60.7416 94.0923 58.1461 91.4968 54.9449 91.4968H33.8924C30.6912 91.4968 28.0957 94.0923 28.0957 97.2935V112.256V129.458V157.458C28.0957 160.44 30.5128 162.857 33.495 162.857H112.096C115.077 162.857 117.495 160.44 117.495 157.458V112.256C117.495 109.274 115.078 106.857 112.096 106.857Z" fill="#A479FF"/>
<path d="M107.074 106.857H61.4954C58.3054 106.857 55.7195 104.271 55.7195 101.081V97.2935C55.7195 94.0923 53.1241 91.4968 49.9228 91.4968H28.8709C25.6697 91.4968 23.0742 94.0923 23.0742 97.2935V112.256V129.458V157.458C23.0742 160.44 25.4913 162.857 28.4735 162.857H107.074C110.055 162.857 112.473 160.44 112.473 157.458V112.256C112.473 109.274 110.055 106.857 107.074 106.857Z" fill="#A479FF"/>
<path opacity="0.12" d="M107.074 106.857H61.4954C58.3054 106.857 55.7195 104.271 55.7195 101.081V97.2935C55.7195 94.0923 53.1241 91.4968 49.9228 91.4968H28.8709C25.6697 91.4968 23.0742 94.0923 23.0742 97.2935V112.256V129.458V157.458C23.0742 160.44 25.4913 162.857 28.4735 162.857H107.074C110.055 162.857 112.473 160.44 112.473 157.458V112.256C112.473 109.274 110.055 106.857 107.074 106.857Z" fill="white"/>
<path opacity="0.12" d="M95.5129 106.857H56.2075C53.4567 106.857 51.2265 104.271 51.2265 101.081V97.2935C51.2265 94.0923 48.9882 91.4968 46.2278 91.4968H28.0729C25.3119 91.4968 23.0742 94.0923 23.0742 97.2935V112.256V129.458V157.458C23.0742 160.44 25.1587 162.857 27.7301 162.857H95.5134C98.0848 162.857 100.169 160.44 100.169 157.458V112.256C100.169 109.274 98.0843 106.857 95.5129 106.857Z" fill="white"/>
<path d="M27.2856 112.873C26.9899 112.873 26.75 112.633 26.75 112.337V99.1943C26.75 97.1585 28.406 95.5024 30.4413 95.5024H45.9547C46.2503 95.5024 46.4903 95.7419 46.4903 96.038C46.4903 96.3342 46.2503 96.5736 45.9547 96.5736H30.4418C28.9973 96.5736 27.8217 97.7487 27.8217 99.1943V112.337C27.8212 112.633 27.5818 112.873 27.2856 112.873Z" fill="white"/>
</svg>
