<svg width="14" height="14" viewBox="0 0 14 14" fill="none" xmlns="http://www.w3.org/2000/svg">
<path d="M8.33268 5.66667V10.3333M5.66602 5.66667V10.3333M2.99935 3V10.8667C2.99935 11.6134 2.99935 11.9865 3.14467 12.2717C3.2725 12.5226 3.47633 12.727 3.72721 12.8548C4.01215 13 4.38534 13 5.13062 13H8.86808C9.61335 13 9.98601 13 10.2709 12.8548C10.5218 12.727 10.7263 12.5226 10.8542 12.2717C10.9993 11.9868 10.9993 11.614 10.9993 10.8687V3M2.99935 3H4.33268M2.99935 3H1.66602M4.33268 3H9.66602M4.33268 3C4.33268 2.37874 4.33268 2.06827 4.43418 1.82324C4.5695 1.49654 4.82889 1.23682 5.1556 1.10149C5.40063 1 5.71143 1 6.33268 1H7.66602C8.28727 1 8.5979 1 8.84293 1.10149C9.16963 1.23682 9.42913 1.49654 9.56445 1.82324C9.66595 2.06827 9.66602 2.37875 9.66602 3M9.66602 3H10.9993M10.9993 3H12.3327" stroke="#3D3D3D" stroke-width="1.5" stroke-linecap="round" stroke-linejoin="round"/>
</svg>
