<svg width="231" height="92" viewBox="0 0 231 92" fill="none" xmlns="http://www.w3.org/2000/svg">
<path d="M19.6424 80.6699V49.8419H31.4671C33.1407 49.8419 34.6527 50.2603 36.0033 51.0971C37.3538 51.9338 38.4255 53.0568 39.2182 54.4661C40.0109 55.8607 40.4073 57.4095 40.4073 59.1123C40.4073 60.5069 40.1504 61.7914 39.6366 62.9658C39.1374 64.1256 38.4328 65.1311 37.5226 65.9826C36.6272 66.834 35.5922 67.4799 34.4178 67.9203L41.7945 80.6699H35.6069L28.4724 68.4048H25.0153V80.6699H19.6424ZM25.0153 63.0319H30.8506C31.6139 63.0319 32.3112 62.8411 32.9425 62.4594C33.5737 62.0777 34.0802 61.5639 34.4619 60.918C34.8435 60.2721 35.0344 59.5527 35.0344 58.76C35.0344 57.9526 34.8435 57.226 34.4619 56.58C34.0802 55.9341 33.5737 55.4203 32.9425 55.0386C32.3112 54.657 31.6139 54.4661 30.8506 54.4661H25.0153V63.0319ZM54.1897 81.2424C52.1639 81.2424 50.3142 80.7213 48.6407 79.679C46.9818 78.6367 45.6533 77.2348 44.6551 75.4732C43.6715 73.7116 43.1797 71.7665 43.1797 69.6379C43.1797 68.0378 43.466 66.5404 44.0385 65.1458C44.611 63.7365 45.3964 62.5034 46.3946 61.4465C47.4076 60.3748 48.582 59.5381 49.9178 58.9362C51.2537 58.3343 52.6777 58.0334 54.1897 58.0334C55.9073 58.0334 57.478 58.4004 58.902 59.1344C60.3406 59.8537 61.5591 60.8446 62.5573 62.1071C63.5556 63.3695 64.2822 64.8082 64.7373 66.423C65.1924 68.0378 65.2952 69.726 65.0456 71.4876H48.949C49.1545 72.3097 49.4921 73.051 49.9619 73.7116C50.4316 74.3575 51.0262 74.8787 51.7455 75.275C52.4648 75.6567 53.2796 75.8549 54.1897 75.8696C55.1292 75.8842 55.9807 75.664 56.744 75.209C57.5221 74.7392 58.168 74.108 58.6818 73.3152L64.1648 74.5924C63.2693 76.5448 61.9334 78.145 60.1571 79.3928C58.3809 80.6259 56.3917 81.2424 54.1897 81.2424ZM48.7728 67.4579H59.6066C59.4452 66.5771 59.1002 65.7844 58.5717 65.0798C58.0579 64.3604 57.4193 63.7879 56.656 63.3622C55.8926 62.9365 55.0705 62.7236 54.1897 62.7236C53.3089 62.7236 52.4942 62.9365 51.7455 63.3622C50.9968 63.7732 50.3582 64.3384 49.8298 65.0577C49.316 65.7624 48.9636 66.5624 48.7728 67.4579ZM70.586 81.2424C69.8227 81.2424 69.1694 80.9782 68.6263 80.4497C68.0978 79.9066 67.8335 79.246 67.8335 78.4679C67.8335 77.7192 68.0978 77.0733 68.6263 76.5302C69.1694 75.987 69.8227 75.7154 70.586 75.7154C71.3494 75.7154 72.0027 75.987 72.5458 76.5302C73.089 77.0733 73.3606 77.7192 73.3606 78.4679C73.3606 79.246 73.089 79.9066 72.5458 80.4497C72.0027 80.9782 71.3494 81.2424 70.586 81.2424Z" fill="#864EFF"/>
<path d="M85.145 81.0663C84 80.9929 82.8917 80.7653 81.82 80.3837C80.7631 79.9873 79.8235 79.4515 79.0015 78.7762C78.1794 78.1009 77.5481 77.2935 77.1077 76.354L81.6439 74.4162C81.82 74.7098 82.1063 75.0255 82.5026 75.3631C82.899 75.6861 83.3688 75.9576 83.9119 76.1778C84.4698 76.398 85.079 76.5081 85.7396 76.5081C86.2974 76.5081 86.8259 76.4347 87.325 76.2879C87.8388 76.1265 88.2499 75.8842 88.5581 75.5613C88.8811 75.2383 89.0426 74.8199 89.0426 74.3061C89.0426 73.763 88.8517 73.3446 88.4701 73.051C88.1031 72.7427 87.6333 72.5152 87.0608 72.3684C86.5029 72.2069 85.9598 72.0601 85.4313 71.928C84.0367 71.6491 82.7375 71.216 81.5338 70.6288C80.3447 70.0416 79.3831 69.2856 78.6491 68.3607C77.9298 67.4212 77.5702 66.2909 77.5702 64.9697C77.5702 63.5163 77.9518 62.2612 78.7152 61.2042C79.4932 60.1473 80.4988 59.3325 81.7319 58.76C82.9797 58.1875 84.323 57.9012 85.7616 57.9012C87.5085 57.9012 89.1086 58.2682 90.562 59.0022C92.03 59.7216 93.1897 60.7418 94.0411 62.063L89.7913 64.5733C89.5857 64.221 89.2995 63.898 88.9325 63.6044C88.5655 63.2961 88.1471 63.0466 87.6773 62.8557C87.2076 62.6502 86.7158 62.5328 86.202 62.5034C85.5414 62.4741 84.9395 62.5328 84.3964 62.6796C83.8532 62.8264 83.4128 63.0759 83.0752 63.4283C82.7522 63.7806 82.5907 64.2503 82.5907 64.8375C82.5907 65.3954 82.8109 65.8138 83.2513 66.0927C83.6917 66.3569 84.2202 66.5624 84.8368 66.7092C85.468 66.856 86.0699 67.0175 86.6424 67.1937C87.9342 67.6194 89.1453 68.1405 90.2757 68.7571C91.4207 69.3737 92.3382 70.1297 93.0282 71.0252C93.7182 71.9206 94.0485 72.9923 94.0191 74.2401C94.0191 75.664 93.5934 76.9118 92.7419 77.9835C91.8905 79.0404 90.7895 79.8478 89.4389 80.4057C88.1031 80.9635 86.6718 81.1837 85.145 81.0663ZM107.132 81.2424C105.107 81.2424 103.257 80.7213 101.583 79.679C99.9245 78.6367 98.5959 77.2421 97.5977 75.4952C96.6141 73.7336 96.1224 71.7885 96.1224 69.6599C96.1224 68.0451 96.4086 66.5404 96.9811 65.1458C97.5537 63.7365 98.339 62.5034 99.3373 61.4465C100.35 60.3748 101.525 59.5381 102.86 58.9362C104.196 58.3343 105.62 58.0334 107.132 58.0334C109.158 58.0334 111.001 58.5545 112.659 59.5968C114.333 60.6391 115.661 62.041 116.645 63.8026C117.643 65.5642 118.142 67.5166 118.142 69.6599C118.142 71.26 117.856 72.7574 117.284 74.152C116.711 75.5466 115.918 76.7797 114.905 77.8514C113.907 78.9083 112.74 79.7377 111.404 80.3396C110.083 80.9415 108.659 81.2424 107.132 81.2424ZM107.132 75.8696C108.204 75.8696 109.166 75.5833 110.017 75.0108C110.868 74.4383 111.536 73.6822 112.021 72.7427C112.52 71.8032 112.769 70.7756 112.769 69.6599C112.769 68.5149 112.513 67.4726 111.999 66.5331C111.5 65.5789 110.817 64.8229 109.951 64.265C109.099 63.6925 108.16 63.4062 107.132 63.4062C106.075 63.4062 105.121 63.6925 104.27 64.265C103.418 64.8375 102.743 65.6009 102.244 66.5551C101.745 67.5093 101.495 68.5442 101.495 69.6599C101.495 70.8196 101.752 71.8693 102.266 72.8088C102.78 73.7483 103.462 74.497 104.314 75.0548C105.18 75.598 106.119 75.8696 107.132 75.8696ZM120.217 72.5225V58.6499H125.59V71.1132C125.59 71.9794 125.803 72.7721 126.229 73.4914C126.654 74.196 127.219 74.7612 127.924 75.1869C128.643 75.598 129.429 75.8035 130.28 75.8035C131.161 75.8035 131.954 75.598 132.658 75.1869C133.363 74.7612 133.928 74.196 134.354 73.4914C134.78 72.7721 134.992 71.9794 134.992 71.1132V58.6499H140.365L140.387 80.6699H135.015L134.992 78.6661C134.229 79.4588 133.326 80.0901 132.284 80.5598C131.242 81.0149 130.126 81.2424 128.937 81.2424C127.337 81.2424 125.876 80.8534 124.555 80.0754C123.234 79.2827 122.177 78.233 121.384 76.9265C120.606 75.6053 120.217 74.1373 120.217 72.5225ZM144.817 80.6699L144.795 58.6499H150.168L150.19 60.6097C150.939 59.817 151.834 59.1931 152.877 58.738C153.919 58.2682 155.042 58.0334 156.246 58.0334C157.053 58.0334 157.86 58.1508 158.668 58.3857L156.554 63.8026C155.996 63.5824 155.438 63.4723 154.88 63.4723C154.014 63.4723 153.221 63.6852 152.502 64.1109C151.798 64.5219 151.232 65.0871 150.807 65.8064C150.396 66.5111 150.19 67.2964 150.19 68.1626V80.6699H144.817ZM173.758 74.0419L178.603 76.6623C177.59 78.0422 176.32 79.1505 174.793 79.9873C173.267 80.8241 171.6 81.2424 169.795 81.2424C167.769 81.2424 165.919 80.7213 164.246 79.679C162.587 78.6367 161.258 77.2421 160.26 75.4952C159.277 73.7336 158.785 71.7885 158.785 69.6599C158.785 68.0451 159.071 66.5404 159.644 65.1458C160.216 63.7365 161.001 62.5034 162 61.4465C163.013 60.3748 164.187 59.5381 165.523 58.9362C166.859 58.3343 168.283 58.0334 169.795 58.0334C171.6 58.0334 173.267 58.4517 174.793 59.2885C176.32 60.1253 177.59 61.2483 178.603 62.6576L173.758 65.2559C173.245 64.6687 172.635 64.2136 171.931 63.8907C171.241 63.5677 170.529 63.4062 169.795 63.4062C168.738 63.4062 167.784 63.6998 166.932 64.287C166.081 64.8596 165.405 65.6229 164.906 66.5771C164.407 67.5166 164.158 68.5442 164.158 69.6599C164.158 70.7609 164.407 71.7885 164.906 72.7427C165.405 73.6822 166.081 74.4383 166.932 75.0108C167.784 75.5833 168.738 75.8696 169.795 75.8696C170.558 75.8696 171.285 75.7081 171.975 75.3851C172.665 75.0475 173.259 74.5997 173.758 74.0419ZM191.557 81.2424C189.531 81.2424 187.681 80.7213 186.008 79.679C184.349 78.6367 183.02 77.2348 182.022 75.4732C181.038 73.7116 180.547 71.7665 180.547 69.6379C180.547 68.0378 180.833 66.5404 181.405 65.1458C181.978 63.7365 182.763 62.5034 183.762 61.4465C184.775 60.3748 185.949 59.5381 187.285 58.9362C188.621 58.3343 190.045 58.0334 191.557 58.0334C193.274 58.0334 194.845 58.4004 196.269 59.1344C197.708 59.8537 198.926 60.8446 199.924 62.1071C200.923 63.3695 201.649 64.8082 202.104 66.423C202.559 68.0378 202.662 69.726 202.413 71.4876H186.316C186.521 72.3097 186.859 73.051 187.329 73.7116C187.799 74.3575 188.393 74.8787 189.112 75.275C189.832 75.6567 190.647 75.8549 191.557 75.8696C192.496 75.8842 193.348 75.664 194.111 75.209C194.889 74.7392 195.535 74.108 196.049 73.3152L201.532 74.5924C200.636 76.5448 199.3 78.145 197.524 79.3928C195.748 80.6259 193.759 81.2424 191.557 81.2424ZM186.14 67.4579H196.974C196.812 66.5771 196.467 65.7844 195.939 65.0798C195.425 64.3604 194.786 63.7879 194.023 63.3622C193.26 62.9365 192.438 62.7236 191.557 62.7236C190.676 62.7236 189.861 62.9365 189.112 63.3622C188.364 63.7732 187.725 64.3384 187.197 65.0577C186.683 65.7624 186.331 66.5624 186.14 67.4579Z" fill="black"/>
<path d="M214.257 63.798V55.4744H205.933V50.1016H214.257V41.778H219.63V50.1016H227.953V55.4744H219.63V63.798H214.257Z" fill="#864EFF"/>
<path fill-rule="evenodd" clip-rule="evenodd" d="M83.3905 0.748508C79.1768 0.562238 75.6317 0.363793 73.8018 0.187645C70.1874 -0.160325 61.6123 -0.0108444 54.7456 0.524288C49.4668 0.934155 40.8158 1.95871 32.9621 3.01283C30.766 2.9397 28.5415 2.84814 26.3494 2.73835C6.76638 1.75772 4.25452 1.90435 3.26355 4.08595C2.23699 6.34724 2.2331 6.53967 3.21289 6.60901C3.48169 6.62801 3.75743 6.76487 3.99326 6.97424C3.55596 7.2856 3.30286 7.65751 3.11114 8.10591C3.0684 8.20593 3.0275 8.30204 2.98842 8.39435C1.47884 7.77832 1.26101 8.12562 1.50465 10.6095C1.55924 11.1659 1.55455 11.8066 1.50095 12.4625C1.3541 12.685 1.31289 13.0808 1.34461 13.6992C1.19784 14.5554 0.976879 15.3621 0.705636 15.9592C-0.305912 18.1863 -0.277778 18.3763 1.10223 18.639L1.16745 18.6512C1.04375 19.2143 0.888205 19.7328 0.707809 20.1547C-0.274499 22.4523 -0.243925 22.6402 1.13886 22.8051C1.95743 22.9026 2.83265 22.9111 3.08377 22.8239C3.29203 22.7515 4.00172 23.845 4.77786 25.3909C4.1825 25.5879 4.38364 25.8932 5.23092 26.6337C5.32245 26.7137 5.41215 26.7992 5.49972 26.8893C5.91118 27.7021 6.34696 28.3656 6.80687 28.8796C7.28363 29.9743 7.3691 30.9697 6.7668 31.0191C5.00752 31.1634 7.17986 33.8954 11.2746 36.6881C15.7299 39.7268 15.9788 39.7291 37.698 36.936C42.3251 36.341 47.0828 35.6518 51.4024 34.9648C53.8285 35.1889 56.7643 35.3785 59.7661 35.5054C62.0457 35.7607 64.3573 35.9818 66.5072 36.1424C79.1845 37.0935 110.863 37.5389 106.643 36.7068C103.052 35.9988 104.921 34.5286 110.6 33.5944C113.527 33.1127 116.032 32.0215 116.166 31.1695C116.3 30.3175 117.188 29.6756 118.141 29.743C119.43 29.8342 119.882 29.1193 119.91 26.9453C119.921 26.1162 119.847 25.4597 119.653 24.9179C119.899 24.4564 120 23.7436 120 22.7051C120 20.7394 119.535 19.7766 118.142 19.0768C118.752 19.0358 118.889 18.8836 118.623 18.4903C118.816 18.136 118.789 17.4322 118.638 16.2204C118.586 15.8082 118.566 15.3431 118.574 14.8554C118.789 14.7529 118.788 14.5926 118.593 14.3297C118.662 13.0494 118.906 11.6909 119.267 10.7616C120.189 8.38708 120.157 8.20165 118.808 8.14725C118.069 8.11755 117.284 8.16803 116.978 8.2607C116.77 7.72079 116.203 6.96322 115.348 6.08373C115.15 5.71364 114.945 5.3114 114.741 4.88869C113.587 2.49594 112.259 1.33408 110.759 1.40507C110.424 1.42095 109.99 1.43174 109.47 1.43785C106.376 -0.272792 102.632 -0.125095 84.7881 0.682999C84.3233 0.704048 83.8573 0.725899 83.3905 0.748508ZM10.2195 10.355C10.1454 10.3868 10.0719 10.4189 9.99923 10.4512C9.82024 10.3628 9.64232 10.2703 9.4662 10.174C9.71876 10.2297 9.97033 10.2902 10.2195 10.355ZM5.51108 6.32106C5.9111 6.21283 6.37852 6.11589 6.92745 6.02835C5.91625 5.89251 5.48142 5.95437 5.51108 6.32106Z" fill="#864EFF"/>
<path d="M32.9749 25.4933V29H21.9903V25.4933H32.9749ZM23.4439 7.1806V29H18.9482V7.1806H23.4439ZM34.5934 21.0575V20.7428C34.5934 19.1643 34.8931 17.7556 35.4925 16.5168C36.092 15.268 36.9612 14.2839 38.1001 13.5646C39.239 12.8452 40.6227 12.4856 42.2512 12.4856C43.8896 12.4856 45.2833 12.8452 46.4322 13.5646C47.5811 14.2839 48.4553 15.268 49.0547 16.5168C49.6542 17.7556 49.9539 19.1643 49.9539 20.7428V21.0575C49.9539 22.636 49.6542 24.0497 49.0547 25.2985C48.4553 26.5373 47.5811 27.5164 46.4322 28.2357C45.2933 28.9451 43.9096 29.2997 42.2811 29.2997C40.6427 29.2997 39.249 28.9451 38.1001 28.2357C36.9612 27.5164 36.092 26.5373 35.4925 25.2985C34.8931 24.0497 34.5934 22.636 34.5934 21.0575ZM38.9093 20.7428V21.0575C38.9093 21.9566 39.0192 22.7759 39.239 23.5152C39.4588 24.2545 39.8135 24.8439 40.303 25.2835C40.7925 25.7131 41.4519 25.9279 42.2811 25.9279C43.0904 25.9279 43.7398 25.7131 44.2293 25.2835C44.7188 24.8439 45.0735 24.2545 45.2933 23.5152C45.5131 22.7759 45.623 21.9566 45.623 21.0575V20.7428C45.623 19.8636 45.5131 19.0544 45.2933 18.3151C45.0735 17.5758 44.7188 16.9813 44.2293 16.5318C43.7398 16.0822 43.0804 15.8574 42.2512 15.8574C41.4419 15.8574 40.7925 16.0822 40.303 16.5318C39.8135 16.9813 39.4588 17.5758 39.239 18.3151C39.0192 19.0544 38.9093 19.8636 38.9093 20.7428ZM62.8717 12.7853H66.783V28.4605C66.783 29.9391 66.4533 31.1929 65.7939 32.222C65.1446 33.261 64.2354 34.0452 63.0665 34.5747C61.8976 35.1142 60.5389 35.384 58.9904 35.384C58.311 35.384 57.5917 35.2941 56.8324 35.1142C56.0831 34.9344 55.3638 34.6547 54.6744 34.275C53.9951 33.8954 53.4256 33.4158 52.9661 32.8364L54.8693 30.2888C55.3688 30.8682 55.9482 31.3178 56.6076 31.6375C57.267 31.9672 57.9963 32.132 58.7955 32.132C59.9545 32.132 60.8536 31.8173 61.493 31.1879C62.1324 30.5585 62.4521 29.6594 62.4521 28.4905V16.5318L62.8717 12.7853ZM51.962 21.0875V20.7728C51.962 19.1243 52.2267 17.6807 52.7562 16.4419C53.2857 15.193 54.04 14.2239 55.0191 13.5346C56.0082 12.8353 57.1771 12.4856 58.5258 12.4856C59.6048 12.4856 60.5089 12.6854 61.2382 13.085C61.9676 13.4846 62.567 14.0541 63.0365 14.7934C63.5061 15.5227 63.8708 16.3869 64.1305 17.386C64.4003 18.375 64.6101 19.459 64.7599 20.6379V21.3272C64.5701 22.8258 64.2354 24.1796 63.7559 25.3884C63.2763 26.5873 62.6119 27.5414 61.7627 28.2507C60.9135 28.95 59.8246 29.2997 58.4958 29.2997C57.1571 29.2997 55.9982 28.9451 55.0191 28.2357C54.04 27.5164 53.2857 26.5373 52.7562 25.2985C52.2267 24.0597 51.962 22.656 51.962 21.0875ZM56.2779 20.7728V21.0875C56.2779 21.9766 56.3978 22.7909 56.6376 23.5302C56.8774 24.2595 57.237 24.8389 57.7166 25.2685C58.2061 25.6881 58.8305 25.8979 59.5898 25.8979C60.3791 25.8979 61.0234 25.7331 61.523 25.4034C62.0225 25.0637 62.3971 24.5992 62.6469 24.0097C62.8967 23.4203 63.0415 22.7409 63.0815 21.9716V20.0085C63.0615 19.3791 62.9766 18.8146 62.8267 18.3151C62.6769 17.8056 62.4671 17.371 62.1973 17.0113C61.9276 16.6517 61.5779 16.3719 61.1483 16.1721C60.7187 15.9723 60.2092 15.8724 59.6198 15.8724C58.8705 15.8724 58.2461 16.0922 57.7465 16.5318C57.257 16.9614 56.8873 17.5458 56.6376 18.2851C56.3978 19.0244 56.2779 19.8536 56.2779 20.7728ZM82.9228 7.1806V29H78.442V7.1806H82.9228ZM91.0901 16.247V29H86.7741V12.7853H90.8203L91.0901 16.247ZM90.4607 20.3232H89.2918C89.3018 18.7247 89.5715 17.341 90.101 16.1721C90.6305 14.9932 91.3698 14.0841 92.3189 13.4447C93.278 12.8053 94.3919 12.4856 95.6608 12.4856C96.6798 12.4856 97.5739 12.6854 98.3432 13.085C99.1125 13.4747 99.7119 14.124 100.142 15.0332C100.571 15.9323 100.786 17.1412 100.786 18.6598V29H96.44V18.6448C96.44 17.9255 96.3401 17.366 96.1403 16.9664C95.9405 16.5667 95.6458 16.287 95.2561 16.1272C94.8765 15.9573 94.4069 15.8724 93.8475 15.8724C93.268 15.8724 92.7635 15.9873 92.3339 16.2171C91.9143 16.4468 91.5646 16.7665 91.2849 17.1762C91.0151 17.5758 90.8103 18.0453 90.6705 18.5848C90.5306 19.1243 90.4607 19.7038 90.4607 20.3232Z" fill="white"/>
</svg>
