<svg width="24" height="24" viewBox="0 0 24 24" fill="none" xmlns="http://www.w3.org/2000/svg">
<path d="M22 6.5H15" stroke="#864EFF" stroke-width="1.5" stroke-miterlimit="10" stroke-linecap="round" stroke-linejoin="round"/>
<path d="M5 6.5H2" stroke="#864EFF" stroke-width="1.5" stroke-miterlimit="10" stroke-linecap="round" stroke-linejoin="round"/>
<path d="M9 10C10.933 10 12.5 8.433 12.5 6.5C12.5 4.567 10.933 3 9 3C7.067 3 5.5 4.567 5.5 6.5C5.5 8.433 7.067 10 9 10Z" stroke="#864EFF" stroke-width="1.5" stroke-miterlimit="10" stroke-linecap="round" stroke-linejoin="round"/>
<path d="M22 17.5H19" stroke="#864EFF" stroke-width="1.5" stroke-miterlimit="10" stroke-linecap="round" stroke-linejoin="round"/>
<path d="M9 17.5H2" stroke="#864EFF" stroke-width="1.5" stroke-miterlimit="10" stroke-linecap="round" stroke-linejoin="round"/>
<path d="M15 21C16.933 21 18.5 19.433 18.5 17.5C18.5 15.567 16.933 14 15 14C13.067 14 11.5 15.567 11.5 17.5C11.5 19.433 13.067 21 15 21Z" stroke="#864EFF" stroke-width="1.5" stroke-miterlimit="10" stroke-linecap="round" stroke-linejoin="round"/>
</svg>
