<svg width="310" height="92" viewBox="0 0 310 92" fill="none" xmlns="http://www.w3.org/2000/svg">
<path d="M19.6424 80.6699V49.8419H31.4671C33.1407 49.8419 34.6527 50.2603 36.0033 51.0971C37.3538 51.9338 38.4255 53.0568 39.2182 54.4661C40.0109 55.8607 40.4073 57.4095 40.4073 59.1123C40.4073 60.5069 40.1504 61.7914 39.6366 62.9658C39.1374 64.1256 38.4328 65.1311 37.5226 65.9826C36.6272 66.834 35.5922 67.4799 34.4178 67.9203L41.7945 80.6699H35.6069L28.4724 68.4048H25.0153V80.6699H19.6424ZM25.0153 63.0319H30.8506C31.6139 63.0319 32.3112 62.8411 32.9425 62.4594C33.5737 62.0777 34.0802 61.5639 34.4619 60.918C34.8435 60.2721 35.0344 59.5527 35.0344 58.76C35.0344 57.9526 34.8435 57.226 34.4619 56.58C34.0802 55.9341 33.5737 55.4203 32.9425 55.0386C32.3112 54.657 31.6139 54.4661 30.8506 54.4661H25.0153V63.0319ZM54.1897 81.2424C52.1639 81.2424 50.3142 80.7213 48.6407 79.679C46.9818 78.6367 45.6533 77.2348 44.6551 75.4732C43.6715 73.7116 43.1797 71.7665 43.1797 69.6379C43.1797 68.0378 43.466 66.5404 44.0385 65.1458C44.611 63.7365 45.3964 62.5034 46.3946 61.4465C47.4076 60.3748 48.582 59.5381 49.9178 58.9362C51.2537 58.3343 52.6777 58.0334 54.1897 58.0334C55.9073 58.0334 57.478 58.4004 58.902 59.1344C60.3406 59.8537 61.5591 60.8446 62.5573 62.1071C63.5556 63.3695 64.2822 64.8082 64.7373 66.423C65.1924 68.0378 65.2952 69.726 65.0456 71.4876H48.949C49.1545 72.3097 49.4921 73.051 49.9619 73.7116C50.4316 74.3575 51.0262 74.8787 51.7455 75.275C52.4648 75.6567 53.2796 75.8549 54.1897 75.8696C55.1292 75.8842 55.9807 75.664 56.744 75.209C57.5221 74.7392 58.168 74.108 58.6818 73.3152L64.1648 74.5924C63.2693 76.5448 61.9334 78.145 60.1571 79.3928C58.3809 80.6259 56.3917 81.2424 54.1897 81.2424ZM48.7728 67.4579H59.6066C59.4452 66.5771 59.1002 65.7844 58.5717 65.0798C58.0579 64.3604 57.4193 63.7879 56.656 63.3622C55.8926 62.9365 55.0705 62.7236 54.1897 62.7236C53.3089 62.7236 52.4942 62.9365 51.7455 63.3622C50.9968 63.7732 50.3582 64.3384 49.8298 65.0577C49.316 65.7624 48.9636 66.5624 48.7728 67.4579ZM70.586 81.2424C69.8227 81.2424 69.1694 80.9782 68.6263 80.4497C68.0978 79.9066 67.8335 79.246 67.8335 78.4679C67.8335 77.7192 68.0978 77.0733 68.6263 76.5302C69.1694 75.987 69.8227 75.7154 70.586 75.7154C71.3494 75.7154 72.0027 75.987 72.5458 76.5302C73.089 77.0733 73.3606 77.7192 73.3606 78.4679C73.3606 79.246 73.089 79.9066 72.5458 80.4497C72.0027 80.9782 71.3494 81.2424 70.586 81.2424Z" fill="#864EFF"/>
<path d="M85.145 81.0663C84 80.9929 82.8917 80.7653 81.82 80.3837C80.7631 79.9873 79.8235 79.4515 79.0015 78.7762C78.1794 78.1009 77.5481 77.2935 77.1077 76.354L81.6439 74.4162C81.82 74.7098 82.1063 75.0255 82.5026 75.3631C82.899 75.6861 83.3688 75.9576 83.9119 76.1778C84.4698 76.398 85.079 76.5081 85.7396 76.5081C86.2974 76.5081 86.8259 76.4347 87.325 76.2879C87.8388 76.1265 88.2499 75.8842 88.5581 75.5613C88.8811 75.2383 89.0426 74.8199 89.0426 74.3061C89.0426 73.763 88.8517 73.3446 88.4701 73.051C88.1031 72.7427 87.6333 72.5152 87.0608 72.3684C86.5029 72.2069 85.9598 72.0601 85.4313 71.928C84.0367 71.6491 82.7375 71.216 81.5338 70.6288C80.3447 70.0416 79.3831 69.2856 78.6491 68.3607C77.9298 67.4212 77.5702 66.2909 77.5702 64.9697C77.5702 63.5163 77.9518 62.2612 78.7152 61.2042C79.4932 60.1473 80.4988 59.3325 81.7319 58.76C82.9797 58.1875 84.323 57.9012 85.7616 57.9012C87.5085 57.9012 89.1086 58.2682 90.562 59.0022C92.03 59.7216 93.1897 60.7418 94.0411 62.063L89.7913 64.5733C89.5857 64.221 89.2995 63.898 88.9325 63.6044C88.5655 63.2961 88.1471 63.0466 87.6773 62.8557C87.2076 62.6502 86.7158 62.5328 86.202 62.5034C85.5414 62.4741 84.9395 62.5328 84.3964 62.6796C83.8532 62.8264 83.4128 63.0759 83.0752 63.4283C82.7522 63.7806 82.5907 64.2503 82.5907 64.8375C82.5907 65.3954 82.8109 65.8138 83.2513 66.0927C83.6917 66.3569 84.2202 66.5624 84.8368 66.7092C85.468 66.856 86.0699 67.0175 86.6424 67.1937C87.9342 67.6194 89.1453 68.1405 90.2757 68.7571C91.4207 69.3737 92.3382 70.1297 93.0282 71.0252C93.7182 71.9206 94.0485 72.9923 94.0191 74.2401C94.0191 75.664 93.5934 76.9118 92.7419 77.9835C91.8905 79.0404 90.7895 79.8478 89.4389 80.4057C88.1031 80.9635 86.6718 81.1837 85.145 81.0663ZM107.132 81.2424C105.107 81.2424 103.257 80.7213 101.583 79.679C99.9245 78.6367 98.5959 77.2421 97.5977 75.4952C96.6141 73.7336 96.1224 71.7885 96.1224 69.6599C96.1224 68.0451 96.4086 66.5404 96.9811 65.1458C97.5537 63.7365 98.339 62.5034 99.3373 61.4465C100.35 60.3748 101.525 59.5381 102.86 58.9362C104.196 58.3343 105.62 58.0334 107.132 58.0334C109.158 58.0334 111.001 58.5545 112.659 59.5968C114.333 60.6391 115.661 62.041 116.645 63.8026C117.643 65.5642 118.142 67.5166 118.142 69.6599C118.142 71.26 117.856 72.7574 117.284 74.152C116.711 75.5466 115.918 76.7797 114.905 77.8514C113.907 78.9083 112.74 79.7377 111.404 80.3396C110.083 80.9415 108.659 81.2424 107.132 81.2424ZM107.132 75.8696C108.204 75.8696 109.166 75.5833 110.017 75.0108C110.868 74.4383 111.536 73.6822 112.021 72.7427C112.52 71.8032 112.769 70.7756 112.769 69.6599C112.769 68.5149 112.513 67.4726 111.999 66.5331C111.5 65.5789 110.817 64.8229 109.951 64.265C109.099 63.6925 108.16 63.4062 107.132 63.4062C106.075 63.4062 105.121 63.6925 104.27 64.265C103.418 64.8375 102.743 65.6009 102.244 66.5551C101.745 67.5093 101.495 68.5442 101.495 69.6599C101.495 70.8196 101.752 71.8693 102.266 72.8088C102.78 73.7483 103.462 74.497 104.314 75.0548C105.18 75.598 106.119 75.8696 107.132 75.8696ZM120.217 72.5225V58.6499H125.59V71.1132C125.59 71.9794 125.803 72.7721 126.229 73.4914C126.654 74.196 127.219 74.7612 127.924 75.1869C128.643 75.598 129.429 75.8035 130.28 75.8035C131.161 75.8035 131.954 75.598 132.658 75.1869C133.363 74.7612 133.928 74.196 134.354 73.4914C134.78 72.7721 134.992 71.9794 134.992 71.1132V58.6499H140.365L140.387 80.6699H135.015L134.992 78.6661C134.229 79.4588 133.326 80.0901 132.284 80.5598C131.242 81.0149 130.126 81.2424 128.937 81.2424C127.337 81.2424 125.876 80.8534 124.555 80.0754C123.234 79.2827 122.177 78.233 121.384 76.9265C120.606 75.6053 120.217 74.1373 120.217 72.5225ZM144.817 80.6699L144.795 58.6499H150.168L150.19 60.6097C150.939 59.817 151.834 59.1931 152.877 58.738C153.919 58.2682 155.042 58.0334 156.246 58.0334C157.053 58.0334 157.86 58.1508 158.668 58.3857L156.554 63.8026C155.996 63.5824 155.438 63.4723 154.88 63.4723C154.014 63.4723 153.221 63.6852 152.502 64.1109C151.798 64.5219 151.232 65.0871 150.807 65.8064C150.396 66.5111 150.19 67.2964 150.19 68.1626V80.6699H144.817ZM173.758 74.0419L178.603 76.6623C177.59 78.0422 176.32 79.1505 174.793 79.9873C173.267 80.8241 171.6 81.2424 169.795 81.2424C167.769 81.2424 165.919 80.7213 164.246 79.679C162.587 78.6367 161.258 77.2421 160.26 75.4952C159.277 73.7336 158.785 71.7885 158.785 69.6599C158.785 68.0451 159.071 66.5404 159.644 65.1458C160.216 63.7365 161.001 62.5034 162 61.4465C163.013 60.3748 164.187 59.5381 165.523 58.9362C166.859 58.3343 168.283 58.0334 169.795 58.0334C171.6 58.0334 173.267 58.4517 174.793 59.2885C176.32 60.1253 177.59 61.2483 178.603 62.6576L173.758 65.2559C173.245 64.6687 172.635 64.2136 171.931 63.8907C171.241 63.5677 170.529 63.4062 169.795 63.4062C168.738 63.4062 167.784 63.6998 166.932 64.287C166.081 64.8596 165.405 65.6229 164.906 66.5771C164.407 67.5166 164.158 68.5442 164.158 69.6599C164.158 70.7609 164.407 71.7885 164.906 72.7427C165.405 73.6822 166.081 74.4383 166.932 75.0108C167.784 75.5833 168.738 75.8696 169.795 75.8696C170.558 75.8696 171.285 75.7081 171.975 75.3851C172.665 75.0475 173.259 74.5997 173.758 74.0419ZM191.557 81.2424C189.531 81.2424 187.681 80.7213 186.008 79.679C184.349 78.6367 183.02 77.2348 182.022 75.4732C181.038 73.7116 180.547 71.7665 180.547 69.6379C180.547 68.0378 180.833 66.5404 181.405 65.1458C181.978 63.7365 182.763 62.5034 183.762 61.4465C184.775 60.3748 185.949 59.5381 187.285 58.9362C188.621 58.3343 190.045 58.0334 191.557 58.0334C193.274 58.0334 194.845 58.4004 196.269 59.1344C197.708 59.8537 198.926 60.8446 199.924 62.1071C200.923 63.3695 201.649 64.8082 202.104 66.423C202.559 68.0378 202.662 69.726 202.413 71.4876H186.316C186.521 72.3097 186.859 73.051 187.329 73.7116C187.799 74.3575 188.393 74.8787 189.112 75.275C189.832 75.6567 190.647 75.8549 191.557 75.8696C192.496 75.8842 193.348 75.664 194.111 75.209C194.889 74.7392 195.535 74.108 196.049 73.3152L201.532 74.5924C200.636 76.5448 199.3 78.145 197.524 79.3928C195.748 80.6259 193.759 81.2424 191.557 81.2424ZM186.14 67.4579H196.974C196.812 66.5771 196.467 65.7844 195.939 65.0798C195.425 64.3604 194.786 63.7879 194.023 63.3622C193.26 62.9365 192.438 62.7236 191.557 62.7236C190.676 62.7236 189.861 62.9365 189.112 63.3622C188.364 63.7732 187.725 64.3384 187.197 65.0577C186.683 65.7624 186.331 66.5624 186.14 67.4579Z" fill="black"/>
<path d="M214.257 63.798V55.4744H205.933V50.1016H214.257V41.778H219.63V50.1016H227.953V55.4744H219.63V63.798H214.257Z" fill="#864EFF"/>
<path fill-rule="evenodd" clip-rule="evenodd" d="M215.425 0.748508C204.54 0.562238 195.382 0.363793 190.655 0.187645C181.317 -0.160325 159.165 -0.0108444 141.426 0.524288C127.789 0.934155 105.441 1.95871 85.1522 3.01283C79.4788 2.9397 73.7323 2.84814 68.0694 2.73835C17.4798 1.75772 10.9908 1.90435 8.43085 4.08595C5.77888 6.34724 5.76884 6.53967 8.29996 6.60901C8.99437 6.62801 9.70671 6.76487 10.3159 6.97424C9.18622 7.2856 8.53239 7.65751 8.03711 8.10591C7.92671 8.20593 7.82104 8.30204 7.72009 8.39435C3.82034 7.77832 3.2576 8.12562 3.88701 10.6095C4.02804 11.1659 4.01593 11.8066 3.87746 12.4625C3.4981 12.685 3.39164 13.0808 3.47358 13.6992C3.09441 14.5554 2.5236 15.3621 1.82289 15.9592C-0.790273 18.1863 -0.717592 18.3763 2.84742 18.639L3.01592 18.6512C2.69634 19.2143 2.29453 19.7328 1.82851 20.1547C-0.709123 22.4523 -0.630139 22.6402 2.94206 22.8051C5.0567 22.9026 7.31769 22.9111 7.9664 22.8239C8.50442 22.7515 10.3378 23.845 12.3428 25.3909C10.8048 25.5879 11.3244 25.8932 13.5132 26.6337C13.7497 26.7137 13.9814 26.7992 14.2076 26.8893C15.2705 27.7021 16.3963 28.3656 17.5844 28.8796C18.816 29.9743 19.0368 30.9697 17.4809 31.0191C12.9361 31.1634 18.548 33.8954 29.126 36.6881C40.6355 39.7268 41.2785 39.7291 97.3866 36.936C109.34 36.341 121.631 35.6518 132.789 34.9648C139.057 35.1889 146.641 35.3785 154.396 35.5054C160.285 35.7607 166.256 35.9818 171.81 36.1424C204.56 37.0935 286.397 37.5389 275.493 36.7068C266.217 35.9988 271.045 34.5286 285.716 33.5944C293.279 33.1127 299.749 32.0215 300.095 31.1695C300.44 30.3175 302.736 29.6756 305.197 29.743C308.528 29.8342 309.696 29.1193 309.768 26.9453C309.796 26.1162 309.604 25.4597 309.104 24.9179C309.739 24.4564 310 23.7436 310 22.7051C310 20.7394 308.798 19.7766 305.2 19.0768C306.777 19.0358 307.13 18.8836 306.442 18.4903C306.941 18.136 306.873 17.4322 306.481 16.2204C306.348 15.8082 306.296 15.3431 306.316 14.8554C306.872 14.7529 306.869 14.5926 306.364 14.3297C306.544 13.0494 307.175 11.6909 308.107 10.7616C310.489 8.38708 310.405 8.20165 306.92 8.14725C305.011 8.11755 302.983 8.16803 302.194 8.2607C301.656 7.72079 300.191 6.96322 297.983 6.08373C297.47 5.71364 296.94 5.3114 296.414 4.88869C293.433 2.49594 290.002 1.33408 286.127 1.40507C285.261 1.42095 284.14 1.43174 282.798 1.43785C274.804 -0.272792 265.132 -0.125095 219.036 0.682999C217.835 0.704048 216.631 0.725899 215.425 0.748508ZM26.4005 10.355C26.2089 10.3868 26.0191 10.4189 25.8313 10.4512C25.369 10.3628 24.9093 10.2703 24.4543 10.174C25.1068 10.2297 25.7567 10.2902 26.4005 10.355ZM14.237 6.32106C15.2703 6.21283 16.4778 6.11589 17.8959 6.02835C15.2836 5.89251 14.1603 5.95437 14.237 6.32106Z" fill="#864EFF"/>
<path d="M31.5962 21.7618H36.077C35.9871 23.2304 35.5825 24.5342 34.8631 25.6731C34.1538 26.8121 33.1597 27.7012 31.881 28.3406C30.6122 28.98 29.0836 29.2997 27.2953 29.2997C25.437 29.2997 23.8335 28.8751 22.4848 28.0259C21.1361 27.1767 20.0971 25.9729 19.3678 24.4143C18.6484 22.8458 18.2888 20.9926 18.2888 18.8546V17.341C18.2888 15.203 18.6584 13.3498 19.3977 11.7813C20.147 10.2127 21.201 9.00387 22.5598 8.15468C23.9185 7.29549 25.507 6.86589 27.3253 6.86589C29.1435 6.86589 30.6771 7.19558 31.9259 7.85496C33.1847 8.51434 34.1588 9.42348 34.8482 10.5824C35.5475 11.7413 35.9671 13.06 36.107 14.5387H31.6112C31.5213 13.2199 31.1566 12.2059 30.5172 11.4965C29.8878 10.7872 28.8238 10.4325 27.3253 10.4325C26.3362 10.4325 25.507 10.6823 24.8376 11.1818C24.1682 11.6813 23.6637 12.4406 23.324 13.4597C22.9943 14.4787 22.8295 15.7625 22.8295 17.311V18.8546C22.8295 20.3532 22.9794 21.617 23.2791 22.646C23.5888 23.665 24.0683 24.4393 24.7177 24.9688C25.3771 25.4883 26.2363 25.7481 27.2953 25.7481C28.2344 25.7481 29.0087 25.5982 29.6181 25.2985C30.2275 24.9988 30.6921 24.5542 31.0118 23.9648C31.3415 23.3753 31.5363 22.641 31.5962 21.7618ZM43.0754 16.322V29H38.7595V12.7853H42.8206L43.0754 16.322ZM47.9608 12.6804L47.8858 16.6816C47.676 16.6517 47.4213 16.6267 47.1216 16.6067C46.8318 16.5767 46.5671 16.5617 46.3273 16.5617C45.5181 16.5617 44.8487 16.7016 44.3192 16.9813C43.7997 17.2511 43.4101 17.6457 43.1503 18.1652C42.8906 18.6747 42.7507 19.2992 42.7307 20.0385L41.8615 19.7687C41.8615 18.37 42.0464 17.1212 42.416 16.0222C42.7857 14.9233 43.3202 14.0591 44.0195 13.4297C44.7288 12.8003 45.593 12.4856 46.612 12.4856C46.8518 12.4856 47.0966 12.5056 47.3464 12.5455C47.5961 12.5755 47.8009 12.6205 47.9608 12.6804ZM57.1621 29.2997C55.4837 29.2997 54.04 28.95 52.8312 28.2507C51.6223 27.5414 50.6932 26.5923 50.0438 25.4034C49.4044 24.2145 49.0847 22.8958 49.0847 21.4471V20.8477C49.0847 19.2092 49.3894 17.7656 49.9989 16.5168C50.6083 15.258 51.4825 14.2739 52.6214 13.5646C53.7603 12.8452 55.114 12.4856 56.6825 12.4856C58.2211 12.4856 59.5199 12.8203 60.5789 13.4896C61.6379 14.149 62.4421 15.0731 62.9916 16.262C63.5411 17.4509 63.8158 18.8396 63.8158 20.4281V22.2264H50.928V19.3491H59.5748V19.0194C59.5748 18.42 59.4649 17.8855 59.2451 17.4159C59.0353 16.9364 58.7156 16.5567 58.286 16.277C57.8564 15.9973 57.307 15.8574 56.6376 15.8574C55.8783 15.8574 55.2589 16.0722 54.7793 16.5018C54.2998 16.9314 53.9501 17.5258 53.7303 18.2851C53.5205 19.0344 53.4156 19.8886 53.4156 20.8477V21.4471C53.4156 22.3163 53.5755 23.0906 53.8952 23.7699C54.2149 24.4393 54.6744 24.9688 55.2739 25.3584C55.8733 25.7381 56.5926 25.9279 57.4318 25.9279C58.2111 25.9279 58.9354 25.778 59.6048 25.4783C60.2841 25.1686 60.8686 24.7041 61.3581 24.0846L63.4561 26.3625C62.9466 27.1018 62.1624 27.7762 61.1034 28.3856C60.0444 28.995 58.7306 29.2997 57.1621 29.2997ZM75.0252 25.3435V18.1203C75.0252 17.351 74.8304 16.7366 74.4408 16.277C74.0611 15.8174 73.4517 15.5877 72.6125 15.5877C72.133 15.5877 71.7184 15.6726 71.3687 15.8424C71.019 16.0023 70.7493 16.237 70.5594 16.5468C70.3696 16.8465 70.2747 17.2011 70.2747 17.6108H65.9588C65.9588 16.6816 66.2385 15.8324 66.798 15.0632C67.3675 14.2839 68.1667 13.6595 69.1957 13.1899C70.2348 12.7204 71.4536 12.4856 72.8523 12.4856C74.1111 12.4856 75.23 12.6954 76.2091 13.115C77.1882 13.5346 77.9575 14.164 78.5169 15.0032C79.0864 15.8424 79.3711 16.8914 79.3711 18.1502V25.0887C79.3711 25.9779 79.4261 26.7072 79.536 27.2766C79.6459 27.8361 79.8057 28.3256 80.0155 28.7452V29H75.6546C75.4448 28.5604 75.285 28.0109 75.1751 27.3516C75.0752 26.6822 75.0252 26.0128 75.0252 25.3435ZM75.5947 19.1243L75.6247 21.567H73.2119C72.063 21.567 71.2238 21.8118 70.6943 22.3013C70.1748 22.7809 69.9151 23.3953 69.9151 24.1446C69.9151 24.7041 70.1049 25.1686 70.4845 25.5383C70.8642 25.8979 71.3787 26.0778 72.0281 26.0778C72.6774 26.0778 73.2419 25.9479 73.7215 25.6881C74.201 25.4284 74.5707 25.1087 74.8304 24.729C75.1002 24.3494 75.24 23.9897 75.25 23.65L76.3889 25.4783C76.2291 25.8879 76.0093 26.3125 75.7296 26.7521C75.4598 27.1917 75.1151 27.6063 74.6955 27.9959C74.2759 28.3756 73.7714 28.6903 73.182 28.9401C72.5925 29.1798 71.8932 29.2997 71.084 29.2997C70.0549 29.2997 69.1208 29.0949 68.2816 28.6853C67.4524 28.2657 66.793 27.6912 66.3035 26.9619C65.8239 26.2226 65.5841 25.3834 65.5841 24.4443C65.5841 22.7559 66.2135 21.4471 67.4724 20.518C68.7312 19.5889 70.6044 19.1243 73.0921 19.1243H75.5947ZM90.6405 12.7853V15.8424H81.1994V12.7853H90.6405ZM83.5372 8.78408H87.8531V24.1146C87.8531 24.5842 87.9131 24.9438 88.033 25.1936C88.1628 25.4434 88.3527 25.6182 88.6024 25.7181C88.8522 25.808 89.1669 25.853 89.5465 25.853C89.8163 25.853 90.056 25.843 90.2658 25.823C90.4856 25.793 90.6705 25.7631 90.8203 25.7331L90.8353 28.9101C90.4657 29.03 90.066 29.1249 89.6364 29.1948C89.2068 29.2648 88.7323 29.2997 88.2128 29.2997C87.2637 29.2997 86.4345 29.1449 85.7251 28.8352C85.0258 28.5155 84.4863 28.0059 84.1067 27.3066C83.727 26.6073 83.5372 25.6881 83.5372 24.5492V8.78408ZM100.561 29.2997C98.8827 29.2997 97.4391 28.95 96.2302 28.2507C95.0214 27.5414 94.0922 26.5923 93.4428 25.4034C92.8034 24.2145 92.4837 22.8958 92.4837 21.4471V20.8477C92.4837 19.2092 92.7885 17.7656 93.3979 16.5168C94.0073 15.258 94.8815 14.2739 96.0204 13.5646C97.1593 12.8452 98.5131 12.4856 100.082 12.4856C101.62 12.4856 102.919 12.8203 103.978 13.4896C105.037 14.149 105.841 15.0731 106.391 16.262C106.94 17.4509 107.215 18.8396 107.215 20.4281V22.2264H94.327V19.3491H102.974V19.0194C102.974 18.42 102.864 17.8855 102.644 17.4159C102.434 16.9364 102.115 16.5567 101.685 16.277C101.255 15.9973 100.706 15.8574 100.037 15.8574C99.2773 15.8574 98.6579 16.0722 98.1784 16.5018C97.6988 16.9314 97.3492 17.5258 97.1294 18.2851C96.9196 19.0344 96.8147 19.8886 96.8147 20.8477V21.4471C96.8147 22.3163 96.9745 23.0906 97.2942 23.7699C97.6139 24.4393 98.0735 24.9688 98.6729 25.3584C99.2723 25.7381 99.9917 25.9279 100.831 25.9279C101.61 25.9279 102.334 25.778 103.004 25.4783C103.683 25.1686 104.268 24.7041 104.757 24.0846L106.855 26.3625C106.346 27.1018 105.561 27.7762 104.502 28.3856C103.443 28.995 102.13 29.2997 100.561 29.2997ZM121.631 16.247V29H117.315V12.7853H121.361L121.631 16.247ZM121.002 20.3232H119.833C119.843 18.7247 120.113 17.341 120.642 16.1721C121.172 14.9932 121.911 14.0841 122.86 13.4447C123.819 12.8053 124.933 12.4856 126.202 12.4856C127.221 12.4856 128.115 12.6854 128.884 13.085C129.654 13.4747 130.253 14.124 130.683 15.0332C131.112 15.9323 131.327 17.1412 131.327 18.6598V29H126.981V18.6448C126.981 17.9255 126.881 17.366 126.681 16.9664C126.482 16.5667 126.187 16.287 125.797 16.1272C125.418 15.9573 124.948 15.8724 124.389 15.8724C123.809 15.8724 123.305 15.9873 122.875 16.2171C122.455 16.4468 122.106 16.7665 121.826 17.1762C121.556 17.5758 121.352 18.0453 121.212 18.5848C121.072 19.1243 121.002 19.7038 121.002 20.3232ZM142.072 29.2997C140.394 29.2997 138.95 28.95 137.741 28.2507C136.532 27.5414 135.603 26.5923 134.954 25.4034C134.314 24.2145 133.995 22.8958 133.995 21.4471V20.8477C133.995 19.2092 134.299 17.7656 134.909 16.5168C135.518 15.258 136.392 14.2739 137.531 13.5646C138.67 12.8452 140.024 12.4856 141.592 12.4856C143.131 12.4856 144.43 12.8203 145.489 13.4896C146.548 14.149 147.352 15.0731 147.901 16.262C148.451 17.4509 148.726 18.8396 148.726 20.4281V22.2264H135.838V19.3491H144.485V19.0194C144.485 18.42 144.375 17.8855 144.155 17.4159C143.945 16.9364 143.625 16.5567 143.196 16.277C142.766 15.9973 142.217 15.8574 141.547 15.8574C140.788 15.8574 140.169 16.0722 139.689 16.5018C139.21 16.9314 138.86 17.5258 138.64 18.2851C138.43 19.0344 138.325 19.8886 138.325 20.8477V21.4471C138.325 22.3163 138.485 23.0906 138.805 23.7699C139.125 24.4393 139.584 24.9688 140.184 25.3584C140.783 25.7381 141.502 25.9279 142.342 25.9279C143.121 25.9279 143.845 25.778 144.515 25.4783C145.194 25.1686 145.778 24.7041 146.268 24.0846L148.366 26.3625C147.856 27.1018 147.072 27.7762 146.013 28.3856C144.954 28.995 143.64 29.2997 142.072 29.2997ZM155.814 24.804L159.186 12.7853H161.928L161.044 17.5058L157.672 29H155.379L155.814 24.804ZM154.106 12.7853L156.518 24.789L156.743 29H154.046L149.94 12.7853H154.106ZM165.015 24.5942L167.368 12.7853H171.549L167.443 29H164.761L165.015 24.5942ZM162.303 12.7853L165.66 24.714L166.124 29H163.816L160.445 17.5208L159.59 12.7853H162.303ZM190.207 25.3435V18.1203C190.207 17.351 190.012 16.7366 189.622 16.277C189.242 15.8174 188.633 15.5877 187.794 15.5877C187.314 15.5877 186.9 15.6726 186.55 15.8424C186.2 16.0023 185.931 16.237 185.741 16.5468C185.551 16.8465 185.456 17.2011 185.456 17.6108H181.14C181.14 16.6816 181.42 15.8324 181.979 15.0632C182.549 14.2839 183.348 13.6595 184.377 13.1899C185.416 12.7204 186.635 12.4856 188.034 12.4856C189.292 12.4856 190.411 12.6954 191.39 13.115C192.369 13.5346 193.139 14.164 193.698 15.0032C194.268 15.8424 194.552 16.8914 194.552 18.1502V25.0887C194.552 25.9779 194.607 26.7072 194.717 27.2766C194.827 27.8361 194.987 28.3256 195.197 28.7452V29H190.836C190.626 28.5604 190.466 28.0109 190.356 27.3516C190.256 26.6822 190.207 26.0128 190.207 25.3435ZM190.776 19.1243L190.806 21.567H188.393C187.244 21.567 186.405 21.8118 185.876 22.3013C185.356 22.7809 185.096 23.3953 185.096 24.1446C185.096 24.7041 185.286 25.1686 185.666 25.5383C186.045 25.8979 186.56 26.0778 187.209 26.0778C187.859 26.0778 188.423 25.9479 188.903 25.6881C189.382 25.4284 189.752 25.1087 190.012 24.729C190.281 24.3494 190.421 23.9897 190.431 23.65L191.57 25.4783C191.41 25.8879 191.191 26.3125 190.911 26.7521C190.641 27.1917 190.296 27.6063 189.877 27.9959C189.457 28.3756 188.953 28.6903 188.363 28.9401C187.774 29.1798 187.074 29.2997 186.265 29.2997C185.236 29.2997 184.302 29.0949 183.463 28.6853C182.634 28.2657 181.974 27.6912 181.485 26.9619C181.005 26.2226 180.765 25.3834 180.765 24.4443C180.765 22.7559 181.395 21.4471 182.654 20.518C183.912 19.5889 185.786 19.1243 188.273 19.1243H190.776ZM204.578 25.9279C205.107 25.9279 205.577 25.828 205.987 25.6282C206.396 25.4184 206.716 25.1287 206.946 24.759C207.185 24.3794 207.31 23.9348 207.32 23.4253H211.382C211.372 24.5642 211.067 25.5782 210.467 26.4674C209.868 27.3466 209.064 28.0409 208.055 28.5504C207.046 29.05 205.917 29.2997 204.668 29.2997C202.989 29.2997 201.596 28.9351 200.487 28.2057C199.388 27.4764 198.564 26.4924 198.014 25.2535C197.465 24.0147 197.19 22.636 197.19 21.1174V20.6829C197.19 19.1543 197.465 17.7706 198.014 16.5318C198.564 15.2929 199.388 14.3089 200.487 13.5796C201.596 12.8502 202.979 12.4856 204.638 12.4856C205.967 12.4856 207.131 12.7403 208.13 13.2499C209.139 13.7594 209.928 14.4887 210.497 15.4378C211.077 16.3769 211.372 17.4909 211.382 18.7796H207.32C207.31 18.2402 207.195 17.7506 206.976 17.311C206.766 16.8714 206.456 16.5218 206.047 16.262C205.647 15.9923 205.152 15.8574 204.563 15.8574C203.724 15.8574 203.084 16.0872 202.645 16.5468C202.205 17.0063 201.905 17.6058 201.746 18.3451C201.586 19.0744 201.506 19.8536 201.506 20.6829V21.1174C201.506 21.9666 201.586 22.7559 201.746 23.4852C201.905 24.2145 202.205 24.804 202.645 25.2535C203.094 25.7031 203.739 25.9279 204.578 25.9279ZM220.583 25.9279C221.112 25.9279 221.582 25.828 221.992 25.6282C222.401 25.4184 222.721 25.1287 222.951 24.759C223.19 24.3794 223.315 23.9348 223.325 23.4253H227.386C227.376 24.5642 227.072 25.5782 226.472 26.4674C225.873 27.3466 225.069 28.0409 224.06 28.5504C223.051 29.05 221.922 29.2997 220.673 29.2997C218.994 29.2997 217.601 28.9351 216.492 28.2057C215.393 27.4764 214.569 26.4924 214.019 25.2535C213.47 24.0147 213.195 22.636 213.195 21.1174V20.6829C213.195 19.1543 213.47 17.7706 214.019 16.5318C214.569 15.2929 215.393 14.3089 216.492 13.5796C217.601 12.8502 218.984 12.4856 220.643 12.4856C221.972 12.4856 223.135 12.7403 224.134 13.2499C225.144 13.7594 225.933 14.4887 226.502 15.4378C227.082 16.3769 227.376 17.4909 227.386 18.7796H223.325C223.315 18.2402 223.2 17.7506 222.981 17.311C222.771 16.8714 222.461 16.5218 222.051 16.262C221.652 15.9923 221.157 15.8574 220.568 15.8574C219.729 15.8574 219.089 16.0872 218.65 16.5468C218.21 17.0063 217.91 17.6058 217.751 18.3451C217.591 19.0744 217.511 19.8536 217.511 20.6829V21.1174C217.511 21.9666 217.591 22.7559 217.751 23.4852C217.91 24.2145 218.21 24.804 218.65 25.2535C219.099 25.7031 219.744 25.9279 220.583 25.9279ZM229.2 21.0575V20.7428C229.2 19.1643 229.499 17.7556 230.099 16.5168C230.698 15.268 231.567 14.2839 232.706 13.5646C233.845 12.8452 235.229 12.4856 236.857 12.4856C238.496 12.4856 239.89 12.8452 241.039 13.5646C242.187 14.2839 243.062 15.268 243.661 16.5168C244.26 17.7556 244.56 19.1643 244.56 20.7428V21.0575C244.56 22.636 244.26 24.0497 243.661 25.2985C243.062 26.5373 242.187 27.5164 241.039 28.2357C239.9 28.9451 238.516 29.2997 236.887 29.2997C235.249 29.2997 233.855 28.9451 232.706 28.2357C231.567 27.5164 230.698 26.5373 230.099 25.2985C229.499 24.0497 229.2 22.636 229.2 21.0575ZM233.516 20.7428V21.0575C233.516 21.9566 233.626 22.7759 233.845 23.5152C234.065 24.2545 234.42 24.8439 234.909 25.2835C235.399 25.7131 236.058 25.9279 236.887 25.9279C237.697 25.9279 238.346 25.7131 238.836 25.2835C239.325 24.8439 239.68 24.2545 239.9 23.5152C240.119 22.7759 240.229 21.9566 240.229 21.0575V20.7428C240.229 19.8636 240.119 19.0544 239.9 18.3151C239.68 17.5758 239.325 16.9813 238.836 16.5318C238.346 16.0822 237.687 15.8574 236.857 15.8574C236.048 15.8574 235.399 16.0822 234.909 16.5318C234.42 16.9813 234.065 17.5758 233.845 18.3151C233.626 19.0544 233.516 19.8636 233.516 20.7428ZM256.804 25.1187V12.7853H261.12V29H257.058L256.804 25.1187ZM257.283 21.7918L258.557 21.7618C258.557 23.2005 258.332 24.4893 257.883 25.6282C257.443 26.7671 256.774 27.6663 255.875 28.3256C254.985 28.975 253.856 29.2997 252.488 29.2997C250.899 29.2997 249.6 28.8302 248.591 27.891C247.592 26.9519 247.093 25.4084 247.093 23.2604V12.7853H251.409V23.2904C251.409 23.9198 251.509 24.4293 251.708 24.8189C251.908 25.2086 252.183 25.4883 252.533 25.6582C252.892 25.818 253.302 25.8979 253.762 25.8979C254.651 25.8979 255.35 25.7181 255.86 25.3584C256.379 24.9988 256.744 24.5092 256.954 23.8898C257.173 23.2604 257.283 22.5611 257.283 21.7918ZM268.642 16.247V29H264.327V12.7853H268.373L268.642 16.247ZM268.013 20.3232H266.844C266.854 18.7247 267.124 17.341 267.653 16.1721C268.183 14.9932 268.922 14.0841 269.871 13.4447C270.83 12.8053 271.944 12.4856 273.213 12.4856C274.232 12.4856 275.126 12.6854 275.896 13.085C276.665 13.4747 277.264 14.124 277.694 15.0332C278.124 15.9323 278.338 17.1412 278.338 18.6598V29H273.992V18.6448C273.992 17.9255 273.893 17.366 273.693 16.9664C273.493 16.5667 273.198 16.287 272.809 16.1272C272.429 15.9573 271.959 15.8724 271.4 15.8724C270.82 15.8724 270.316 15.9873 269.886 16.2171C269.467 16.4468 269.117 16.7665 268.837 17.1762C268.568 17.5758 268.363 18.0453 268.223 18.5848C268.083 19.1243 268.013 19.7038 268.013 20.3232ZM289.563 12.7853V15.8424H280.122V12.7853H289.563ZM282.459 8.78408H286.775V24.1146C286.775 24.5842 286.835 24.9438 286.955 25.1936C287.085 25.4434 287.275 25.6182 287.525 25.7181C287.774 25.808 288.089 25.853 288.469 25.853C288.738 25.853 288.978 25.843 289.188 25.823C289.408 25.793 289.593 25.7631 289.743 25.7331L289.758 28.9101C289.388 29.03 288.988 29.1249 288.559 29.1948C288.129 29.2648 287.655 29.2997 287.135 29.2997C286.186 29.2997 285.357 29.1449 284.647 28.8352C283.948 28.5155 283.409 28.0059 283.029 27.3066C282.649 26.6073 282.459 25.6881 282.459 24.5492V8.78408Z" fill="white"/>
</svg>
