<svg width="372" height="278" viewBox="0 0 372 278" fill="none" xmlns="http://www.w3.org/2000/svg">
<path d="M372 243.62H0V243.806H372V243.62Z" fill="#F7F3FF"/>
<path d="M292.525 249.276H279.979V249.462H292.525V249.276Z" fill="#F7F3FF"/>
<path d="M333.726 249.183H300.576V249.369H333.726V249.183Z" fill="#F7F3FF"/>
<path d="M238.62 250.433H197.352V250.619H238.62V250.433Z" fill="#F7F3FF"/>
<path d="M193.068 250.433H177.654V250.619H193.068V250.433Z" fill="#F7F3FF"/>
<path d="M112.759 248.997H105.988V249.183H112.759V248.997Z" fill="#F7F3FF"/>
<path d="M128.081 248.997H116.891V249.183H128.081V248.997Z" fill="#F7F3FF"/>
<path d="M99.2825 252.355H49.7656V252.541H99.2825V252.355Z" fill="#F7F3FF"/>
<path d="M176.338 210.439H32.6725C30.3312 210.439 28.4258 208.534 28.4258 206.192V4.24675C28.4258 1.90538 30.3312 0 32.6725 0H176.338C178.679 0 180.584 1.90538 180.584 4.24675V206.192C180.584 208.534 178.679 210.439 176.338 210.439ZM32.6725 0.186744C30.4331 0.186744 28.6118 2.00806 28.6118 4.2475V206.193C28.6118 208.432 30.4331 210.254 32.6725 210.254H176.338C178.577 210.254 180.398 208.432 180.398 206.193V4.24675C180.398 2.00806 178.577 0.186 176.338 0.186L32.6725 0.186744Z" fill="#F7F3FF"/>
<path d="M337.262 210.439H193.598C191.257 210.439 189.352 208.534 189.352 206.192V4.24675C189.352 1.90538 191.257 0 193.598 0H337.262C339.605 0 341.509 1.90538 341.509 4.24675V206.192C341.51 208.534 339.605 210.439 337.262 210.439ZM193.598 0.186744C191.359 0.186744 189.538 2.00806 189.538 4.2475V206.193C189.538 208.432 191.359 210.254 193.598 210.254H337.262C339.502 210.254 341.323 208.432 341.323 206.193V4.24675C341.323 2.00806 339.502 0.186 337.262 0.186L193.598 0.186744Z" fill="#F7F3FF"/>
<path d="M236.433 152.955H201.199V243.62H236.433V152.955Z" fill="#F7F3FF"/>
<path d="M229.741 243.62H236.434V224.584H222.725L229.741 243.62Z" fill="#CCB5FF"/>
<path d="M104.749 152.955H69.5156V243.62H104.749V152.955Z" fill="#F7F3FF"/>
<path d="M236.432 152.955H98.9082V231.94H236.432V152.955Z" fill="#CCB5FF"/>
<path d="M169.918 158.697V208.142H231.243V158.697H169.918Z" fill="#F7F3FF"/>
<path d="M104.102 158.697V208.142H165.427V158.697H104.102Z" fill="#F7F3FF"/>
<path d="M231.242 224.584V220.944H169.917V224.584H231.242Z" fill="#F7F3FF"/>
<path d="M165.424 224.585V220.944H104.099V224.585H165.424Z" fill="#F7F3FF"/>
<path d="M231.242 217.555V213.915H169.917V217.555H231.242Z" fill="#F7F3FF"/>
<path d="M165.424 217.555V213.915H104.099V217.555H165.424Z" fill="#F7F3FF"/>
<path d="M140.828 164.021H128.696C123.426 164.021 118.388 161.854 114.764 158.029H154.761C151.136 161.854 146.099 164.021 140.828 164.021Z" fill="#CCB5FF"/>
<path d="M207.266 164.021H195.134C189.864 164.021 184.826 161.854 181.201 158.029H221.199C217.575 161.854 212.536 164.021 207.266 164.021Z" fill="#CCB5FF"/>
<path d="M105.6 243.62H98.9082V224.584H112.617L105.6 243.62Z" fill="#CCB5FF"/>
<path d="M235.673 14.1641H50.8496V119.735H235.673V14.1641Z" fill="#F7F3FF"/>
<path d="M245.897 10.9062H44.6737C44.1506 10.9062 43.7266 11.3303 43.7266 11.8534C43.7266 12.3764 44.1506 12.8005 44.6737 12.8005H245.897C246.42 12.8005 246.844 12.3764 246.844 11.8534C246.844 11.3303 246.42 10.9062 245.897 10.9062Z" fill="#F7F3FF"/>
<path d="M239.722 14.1641H52.7422V119.735H239.722V14.1641Z" fill="#F3EEFF"/>
<path d="M235.673 119.736H50.8496V127.258H235.673V119.736Z" fill="#F7F3FF"/>
<path d="M246.464 119.736H59.4844V127.258H246.464V119.736Z" fill="#F3EEFF"/>
<path d="M234.055 114.068L234.055 19.8315L58.4097 19.8315L58.4097 114.068L234.055 114.068Z" fill="#F0EAFF"/>
<path d="M145.332 114.069L178.596 19.832H194.298L161.034 114.069H145.332Z" fill="white"/>
<path d="M164.408 114.069L197.672 19.832H203.793L170.53 114.069H164.408Z" fill="white"/>
<path d="M234.055 114.069L234.055 19.832H233.335L233.335 114.069H234.055Z" fill="#F7F3FF"/>
<path d="M58.4745 9.21143H48.7207V100.145H58.4745V9.21143Z" fill="#C8B0FA"/>
<path d="M62.275 9.21143H54.6758V100.145H62.275V9.21143Z" fill="#F7F3FF"/>
<path d="M68.2284 9.21143H58.4746V100.145H68.2284V9.21143Z" fill="#C8B0FA"/>
<path d="M72.0289 9.21143H64.4297V100.145H72.0289V9.21143Z" fill="#F7F3FF"/>
<path d="M77.9824 9.21143H68.2285V100.145H77.9824V9.21143Z" fill="#C8B0FA"/>
<path d="M230.424 9.21143H224.803V100.145H230.424V9.21143Z" fill="#C8B0FA"/>
<path d="M232.614 9.21143H228.234V100.145H232.614V9.21143Z" fill="#F7F3FF"/>
<path d="M236.043 9.21143H230.422V100.145H236.043V9.21143Z" fill="#C8B0FA"/>
<path d="M238.233 9.21143H233.854V100.145H238.233V9.21143Z" fill="#F7F3FF"/>
<path d="M241.666 9.21143H236.045V100.145H241.666V9.21143Z" fill="#C8B0FA"/>
<path d="M292.787 48.6572H280.316V82.6803H292.787V48.6572Z" fill="#F3EEFF"/>
<path d="M275.574 88.3535L272.693 96.2206H275.574L293.231 88.3535H275.574Z" fill="#B28FFF"/>
<path d="M272.693 88.3535V96.2206L290.35 88.3535H272.693Z" fill="#F7F3FF"/>
<path d="M305.771 88.3535L302.891 96.2206H305.771L323.428 88.3535H305.771Z" fill="#B28FFF"/>
<path d="M302.891 88.3535V96.2206L320.548 88.3535H302.891Z" fill="#F7F3FF"/>
<path d="M259.731 88.7222H278.934V82.73H259.731V88.7222Z" fill="#F7F3FF"/>
<path d="M333.726 82.73H278.934V88.7222H333.726V82.73Z" fill="#B28FFF"/>
<path d="M313.557 82.6802H283.208L279.455 41.4521H309.804L313.557 82.6802Z" fill="#F7F3FF"/>
<path d="M315.129 82.6802H284.78L281.027 41.4521H311.377L315.129 82.6802Z" fill="#CCB5FF"/>
<path d="M288.928 78.1163L286.006 46.0156H307.226L310.148 78.1163H288.928Z" fill="white"/>
<path d="M117.114 139.724C117.114 139.724 104.03 117.169 122.182 99.2153C122.182 99.2153 126.92 102.303 126.847 106.454C126.774 110.606 121.774 111.656 122.848 115.121C123.922 118.585 128.644 121.984 125.545 124.848C122.446 127.711 126.044 130.261 125.834 133.77C125.625 137.278 117.114 139.724 117.114 139.724Z" fill="#F7F3FF"/>
<path d="M118.105 141.786C118.105 141.786 123.409 116.256 100.522 104.941C100.522 104.941 97.0004 109.366 98.3783 113.282C99.7562 117.199 104.833 116.618 104.905 120.244C104.978 123.871 101.569 128.585 105.413 130.326C109.257 132.067 106.646 135.62 107.951 138.884C109.257 142.149 118.105 141.786 118.105 141.786Z" fill="#F7F3FF"/>
<path d="M98.0586 136.129C98.0586 136.129 98.4938 152.955 115.175 152.955C131.856 152.955 132.292 136.129 132.292 136.129H98.0586Z" fill="#CCB5FF"/>
<path d="M294.887 243.62H296.586L301.439 219.697L302.292 215.506L307.587 189.434H327.891L338.892 243.62H340.591L329.382 188.434C329.302 188.048 328.964 187.771 328.565 187.771H306.906C306.513 187.771 306.169 188.048 306.096 188.434L301.445 211.333L300.592 215.518L294.887 243.62Z" fill="#C8B0FA"/>
<path d="M262.293 243.62H263.992L275 189.434H295.297L300.592 215.517L301.439 219.696L306.298 243.619H307.998L302.291 215.505L301.444 211.332L296.794 188.434C296.714 188.047 296.37 187.771 295.978 187.771H274.318C273.919 187.771 273.582 188.047 273.502 188.434L262.293 243.62Z" fill="#C8B0FA"/>
<path d="M312.336 188.602H275.032C267.91 188.602 262.096 182.905 261.951 175.785L260.561 119.091C260.452 113.752 264.749 109.366 270.088 109.366H293.473C298.319 109.366 302.392 113.002 302.941 117.817L312.336 188.602Z" fill="#F3EEFF"/>
<path d="M328.498 181.454H291.992V188.602H331.745C332.774 188.602 333.608 187.768 333.608 186.739V186.563C333.607 183.741 331.32 181.454 328.498 181.454Z" fill="#F3EEFF"/>
<path d="M186 277.221C265.668 277.221 330.253 273.449 330.253 268.797C330.253 264.144 265.668 260.372 186 260.372C106.331 260.372 41.7461 264.144 41.7461 268.797C41.7461 273.449 106.331 277.221 186 277.221Z" fill="#F1EAFF"/>
<path opacity="0.2" d="M138.795 54.5566C138.795 54.5469 138.798 54.5372 138.798 54.5268C138.798 54.5186 138.795 54.5112 138.795 54.503C138.792 53.1303 138.685 51.7487 138.461 50.3686C137.353 43.535 133.64 37.5353 128.009 33.4761C123.578 30.2821 118.381 28.6029 113.04 28.5694C112.979 28.5679 112.919 28.5672 112.859 28.5672C112.851 28.5672 112.844 28.5649 112.836 28.5649C112.827 28.5649 112.82 28.5672 112.812 28.5672C111.439 28.5709 110.058 28.6773 108.677 28.902C101.843 30.0113 95.8435 33.7231 91.7842 39.3552C91.3936 39.8975 91.032 40.4541 90.6868 41.0188C90.6585 41.0552 90.6332 41.0939 90.6146 41.1363C88.1535 45.2023 86.8745 49.7942 86.876 54.4986C86.8753 54.5082 86.873 54.5179 86.873 54.5283C86.873 54.5365 86.8753 54.5439 86.8753 54.5521C86.8783 55.9248 86.9854 57.3064 87.2093 58.6865C88.3179 65.5202 92.0305 71.5198 97.6618 75.579C102.138 78.8058 107.394 80.4939 112.794 80.4939C114.188 80.4939 115.591 80.3816 116.993 80.1539C123.828 79.0446 129.826 75.3328 133.886 69.7007C134.276 69.1583 134.638 68.6018 134.983 68.0371C135.011 68.0007 135.037 67.962 135.055 67.9196C137.517 63.8521 138.797 59.2602 138.795 54.5566ZM87.9965 53.9696C88.0858 49.7325 89.2591 45.6033 91.4427 41.9168H99.5605C98.3775 45.5415 97.6938 49.6618 97.638 53.9696H87.9965ZM100.698 41.9168H112.278V53.9696H98.7488C98.8001 49.6365 99.495 45.5051 100.698 41.9168ZM113.393 40.8023V29.7018C114.926 29.8111 116.447 30.3662 117.887 31.3557C120.644 33.2484 122.958 36.5957 124.554 40.8023H113.393ZM124.952 41.9168C125.836 44.5327 126.452 47.4387 126.74 50.5092C126.848 51.6706 126.905 52.8253 126.921 53.9688H113.392V41.916L124.952 41.9168ZM110.64 29.9882C111.183 29.835 111.731 29.7427 112.278 29.7047V40.8023H101.096C103.202 35.2156 106.579 31.131 110.64 29.9882ZM112.278 55.0841V67.1369H100.718C99.8343 64.521 99.2175 61.6149 98.9303 58.5444C98.8217 57.383 98.7644 56.2283 98.7488 55.0848L112.278 55.0841ZM112.278 68.2514V79.3511C110.744 79.2417 109.224 78.6867 107.783 77.6972C105.026 75.8045 102.712 72.4572 101.116 68.2506H112.278V68.2514ZM115.03 79.0654C114.487 79.2187 113.94 79.3109 113.392 79.3489V68.2514H124.574C122.468 73.8381 119.092 77.9226 115.03 79.0654ZM113.393 67.1369V55.0841H126.922C126.87 59.4164 126.176 63.5486 124.973 67.1369H113.393ZM128.033 55.0841H137.674C137.585 59.3212 136.412 63.4504 134.229 67.1369H126.111C127.293 63.5121 127.978 59.3918 128.033 55.0841ZM137.673 53.9696H128.034C128.019 52.7911 127.961 51.6014 127.85 50.4058C127.565 47.3643 126.983 44.5051 126.148 41.9168H134.244C135.793 44.5416 136.859 47.4529 137.36 50.5464C137.545 51.6892 137.647 52.832 137.673 53.9696ZM127.356 34.38C129.829 36.1627 131.91 38.3396 133.546 40.8015H125.766C124.098 36.1932 121.594 32.5476 118.518 30.4361C118.439 30.3818 118.359 30.3327 118.28 30.2813C121.507 31.0082 124.588 32.3854 127.356 34.38ZM107.363 30.2955C104.237 32.3519 101.661 36.1054 99.9451 40.8023H92.1435C92.3214 40.5352 92.4999 40.2681 92.6882 40.0062C96.275 35.0303 101.445 31.6258 107.363 30.2955ZM87.9965 55.0841H97.6365C97.6514 56.2626 97.7087 57.4522 97.821 58.6478C98.1052 61.6893 98.6878 64.5485 99.5225 67.1369H91.4263C89.8781 64.512 88.8119 61.6008 88.3105 58.5072C88.1245 57.3644 88.024 56.2217 87.9965 55.0841ZM92.1242 68.2514H99.9042C101.573 72.8597 104.077 76.5053 107.152 78.6168C107.233 78.6726 107.315 78.7202 107.397 78.773C104.168 78.0461 101.085 76.6697 98.3143 74.6729C95.8412 72.8902 93.7603 70.7133 92.1242 68.2514ZM118.308 78.7582C121.434 76.7017 124.009 72.9483 125.725 68.2514H133.526C133.348 68.5185 133.17 68.7856 132.982 69.0475C129.396 74.0226 124.226 77.4279 118.308 78.7582Z" fill="#A485E6"/>
<path d="M308.228 66.9243H74.3164V123.599H308.228V66.9243Z" fill="#E7DCFF"/>
<path d="M302.954 72.1963H69.043V128.87H302.954V72.1963Z" fill="#864EFF"/>
<path d="M297.683 77.4692H63.7715V134.143H297.683V77.4692Z" fill="#A485E6"/>
<path d="M286.523 122.983V88.6284L74.9328 88.6284V122.983L286.523 122.983Z" fill="white"/>
<path d="M250.928 88.6282V122.983H252.168V88.6282H250.928Z" fill="#E7DCFF"/>
<path d="M80.2051 93.365V118.247H81.4453V93.365H80.2051Z" fill="#E7DCFF"/>
<path d="M268.159 110.109C266.753 110.109 265.348 109.574 264.277 108.503C262.137 106.363 262.137 102.879 264.277 100.74C266.418 98.5992 269.901 98.5992 272.041 100.74C274.181 102.88 274.181 106.364 272.041 108.503C270.971 109.574 269.565 110.109 268.159 110.109ZM268.159 100.621C267.134 100.621 266.11 101.011 265.329 101.792C263.768 103.352 263.768 105.891 265.329 107.451C266.89 109.012 269.429 109.012 270.989 107.451C272.55 105.891 272.55 103.352 270.989 101.792C270.208 101.011 269.185 100.621 268.159 100.621Z" fill="#E7DCFF"/>
<path d="M275.276 112.481C275.085 112.481 274.895 112.408 274.75 112.263L270.992 108.506C270.701 108.215 270.701 107.744 270.992 107.454C271.283 107.163 271.753 107.163 272.044 107.454L275.802 111.211C276.092 111.502 276.092 111.972 275.802 112.263C275.656 112.408 275.466 112.481 275.276 112.481Z" fill="#E7DCFF"/>
<path d="M217.687 32.6606H194.295V33.2402H217.687V32.6606Z" fill="#E7DCFF"/>
<path d="M217.687 35.1255H194.295V35.7051H217.687V35.1255Z" fill="#E7DCFF"/>
<path d="M217.687 37.5913H194.295V38.1709H217.687V37.5913Z" fill="#E7DCFF"/>
<path d="M217.687 40.0562H194.295V40.6357H217.687V40.0562Z" fill="#E7DCFF"/>
<path d="M217.687 42.521H194.295V43.1006H217.687V42.521Z" fill="#E7DCFF"/>
<path d="M209.545 44.9863H194.295V45.5659H209.545V44.9863Z" fill="#E7DCFF"/>
<path d="M76.8888 139.042H51.9648V139.413H76.8888V139.042Z" fill="#E7DCFF"/>
<path d="M76.8888 140.62H51.9648V140.992H76.8888V140.62Z" fill="#E7DCFF"/>
<path d="M76.8888 142.199H51.9648V142.57H76.8888V142.199Z" fill="#E7DCFF"/>
<path d="M76.8888 143.778H51.9648V144.149H76.8888V143.778Z" fill="#E7DCFF"/>
<path d="M76.8888 145.356H51.9648V145.727H76.8888V145.356Z" fill="#E7DCFF"/>
<path d="M67.6305 146.935H51.9648V147.306H67.6305V146.935Z" fill="#E7DCFF"/>
<path d="M158.802 36.3145C156.205 36.3145 154.1 38.42 154.1 41.0173V56.5297C154.1 59.127 156.205 61.2325 158.802 61.2325C161.4 61.2325 163.505 59.127 163.505 56.5297V41.0173C163.505 38.42 161.4 36.3145 158.802 36.3145Z" fill="#A485E6"/>
<path d="M170.586 27.0674C167.988 27.0674 165.883 29.1729 165.883 31.7702V56.5298C165.883 59.1271 167.988 61.2326 170.586 61.2326C173.183 61.2326 175.288 59.1271 175.288 56.5298V31.7702C175.288 29.1729 173.183 27.0674 170.586 27.0674Z" fill="#864EFF"/>
<path d="M182.371 45.561C179.773 45.561 177.668 47.6666 177.668 50.2639V56.5298C177.668 59.1271 179.773 61.2326 182.371 61.2326C184.968 61.2326 187.074 59.1271 187.074 56.5298V50.2639C187.073 47.6666 184.967 45.561 182.371 45.561Z" fill="#E7DCFF"/>
<path d="M281.686 151.905H300.697L268.242 118.248L281.686 151.905Z" fill="#A981FF"/>
<path d="M263.414 134.143L268.242 118.248L270.978 134.143H263.414Z" fill="#E7DCFF"/>
<path d="M268.242 118.248V165.349L271.603 161.988L281.686 151.905L268.242 118.248Z" fill="#CCB7FA"/>
<path d="M301.857 17.231H260.198C255.823 17.231 252.229 20.826 252.229 25.2007V46.7127C252.229 51.0874 255.824 54.6817 260.198 54.6817H290.767L290.544 62.2058L298.263 54.6817H301.858C306.232 54.6817 309.828 51.0867 309.828 46.7127V25.2007C309.827 20.826 306.232 17.231 301.857 17.231ZM259.25 26.3993C259.25 25.1732 260.254 24.1702 261.479 24.1702H271.066C272.292 24.1702 273.267 25.1739 273.267 26.3993C273.267 27.5971 272.292 28.6008 271.066 28.6008H261.479C260.254 28.6008 259.25 27.5971 259.25 26.3993ZM299.489 47.2142H282.909C281.71 47.2142 280.707 46.2395 280.707 45.0127C280.707 43.7866 281.71 42.8119 282.909 42.8119H299.489C300.715 42.8119 301.69 43.7866 301.69 45.0127C301.69 46.2395 300.715 47.2142 299.489 47.2142ZM299.489 37.9067H263.709C262.511 37.9067 261.508 36.9321 261.508 35.706C261.508 34.4791 262.511 33.5045 263.709 33.5045H299.489C300.715 33.5045 301.69 34.4791 301.69 35.706C301.69 36.9321 300.715 37.9067 299.489 37.9067ZM299.489 28.6008H278.311C277.085 28.6008 276.109 27.5971 276.109 26.3993C276.109 25.1732 277.085 24.1702 278.311 24.1702H299.489C300.715 24.1702 301.69 25.1739 301.69 26.3993C301.69 27.5971 300.715 28.6008 299.489 28.6008Z" fill="#A981FF"/>
<path d="M236.694 85.4319C234.901 80.5067 232.171 76.0203 228.696 72.2036H169.541C166.081 76.0055 163.343 80.4843 161.543 85.4319L169.727 126.173C176.609 133.651 186.326 138.516 197.277 139.022C209.553 139.588 220.795 134.551 228.518 126.173C234.671 119.5 238.599 110.706 239.053 100.929C239.306 95.4834 238.45 90.2456 236.694 85.4319Z" fill="#A485E6"/>
<path d="M239.053 100.93C238.599 110.706 234.671 119.5 228.518 126.174H169.727C162.748 118.607 158.679 108.355 159.192 97.2543C159.385 93.1102 160.196 89.1372 161.543 85.4321H236.694C238.45 90.2458 239.306 95.4836 239.053 100.93Z" fill="white"/>
<path opacity="0.4" d="M239.053 100.93C238.599 110.706 234.671 119.5 228.518 126.174C220.795 134.551 209.553 139.588 197.277 139.023C186.326 138.517 176.609 133.651 169.727 126.174C162.748 118.607 158.679 108.355 159.192 97.2544C159.385 93.1103 160.196 89.1374 161.543 85.4323C163.343 80.4847 166.081 76.0058 169.541 72.2039C177.271 63.7149 188.587 58.5962 200.953 59.1616C212.008 59.675 221.799 64.6226 228.696 72.2039C232.171 76.0207 234.901 80.507 236.694 85.4323C238.45 90.2459 239.306 95.4837 239.053 100.93Z" fill="#D3BEFF"/>
<path opacity="0.4" d="M221.654 66.0761L164.171 118.497C163.876 117.966 163.594 117.428 163.321 116.885C161.588 113.414 160.355 109.669 159.699 105.731V105.726L209.348 60.4492C213.81 61.6233 217.958 63.5495 221.654 66.0761Z" fill="#D3BEFF"/>
<path opacity="0.4" d="M237.033 86.3942L182.99 135.674C177.339 133.184 172.396 129.43 168.5 124.782L227.514 70.9644C231.785 75.2699 235.069 80.5381 237.033 86.3942Z" fill="#D3BEFF"/>
<path d="M239.036 76.0368C226.304 53.9929 198.11 46.4435 176.066 59.1756C154.022 71.9076 146.472 100.102 159.204 122.145C171.939 144.193 200.133 151.743 222.177 139.01C244.221 126.278 251.77 98.0845 239.036 76.0368ZM167.623 117.282C157.578 99.8895 163.531 77.6431 180.928 67.5954C198.325 57.5477 220.569 63.5071 230.615 80.8996C240.663 98.2958 234.709 120.543 217.313 130.591C199.917 140.638 177.672 134.678 167.623 117.282Z" fill="#A981FF"/>
<path d="M93.0434 146.522L98.7402 147.85L94.021 151.374C94.021 151.374 90.6343 149.837 90.4766 147.434L93.0434 146.522Z" fill="#F1EBFF"/>
<path d="M101.794 151.643L97.6835 154.379L94.0215 151.374L98.7407 147.85L101.794 151.643Z" fill="#F1EBFF"/>
<path d="M166.259 123.379C160.201 127.856 153.995 132.077 147.747 136.226C141.495 140.367 135.184 144.407 128.83 148.371C122.463 152.315 116.074 156.22 109.626 160.022C106.416 161.947 103.166 163.803 99.9386 165.698C98.3419 166.675 96.6531 167.493 94.7745 167.982C93.8392 168.233 92.8542 168.398 91.8185 168.476C90.7769 168.544 89.6974 168.545 88.4772 168.303C85.1679 167.647 83.0163 164.432 83.6725 161.123C83.7231 160.868 83.8005 160.586 83.8808 160.345C84.2811 159.168 84.8212 158.232 85.4008 157.364C85.9856 156.506 86.6217 155.736 87.3069 155.052C88.6692 153.669 90.2219 152.615 91.8662 151.72C95.1197 149.871 98.3524 147.983 101.624 146.165C108.139 142.479 114.714 138.897 121.311 135.353C127.92 131.83 134.573 128.382 141.285 125.036C148 121.697 154.759 118.431 161.664 115.42C164.005 114.4 166.73 115.469 167.751 117.811C168.629 119.826 167.956 122.126 166.259 123.379Z" fill="#A981FF"/>
<path d="M101.301 111.278C100.93 111.878 100.502 112.611 100.104 113.291C99.7042 113.99 99.3099 114.695 98.9335 115.412C98.1604 116.833 97.4172 118.277 96.7238 119.743C96.0467 121.216 95.3764 122.692 94.7656 124.191C94.4747 124.945 94.1607 125.692 93.8854 126.451L93.4688 127.589C93.3862 127.804 93.3721 127.892 93.3178 128.046C93.2701 128.18 93.2404 128.353 93.198 128.505C92.9085 129.816 92.7836 131.406 92.762 132.99C92.7203 134.585 92.7791 136.218 92.8461 137.86C92.9152 139.504 93.0306 141.158 93.1801 142.812C93.2962 144.468 93.4747 146.14 93.6287 147.779L90.7554 148.369C90.2517 146.705 89.8582 145.057 89.4616 143.384C89.0993 141.71 88.7697 140.024 88.4847 138.319C88.2042 136.611 87.9952 134.885 87.8694 133.113C87.769 131.335 87.7072 129.536 88.0108 127.529C88.0599 127.27 88.0912 127.025 88.1589 126.755C88.2206 126.505 88.295 126.179 88.3523 125.997L88.7161 124.732C88.9572 123.889 89.2339 123.058 89.5129 122.227C90.088 120.574 90.71 118.939 91.4101 117.338C92.114 115.74 92.8542 114.158 93.663 112.606C94.0714 111.833 94.5007 111.069 94.9389 110.307C95.3861 109.532 95.8198 108.818 96.3659 108.004L101.301 111.278Z" fill="#F1EBFF"/>
<path d="M98.1267 264.901C97.5917 264.901 97.0069 264.79 96.5977 264.694C96.5442 264.681 96.504 264.639 96.4943 264.585C96.4846 264.531 96.5085 264.476 96.5546 264.446C96.7525 264.316 98.5135 263.185 99.1854 263.485C99.2925 263.533 99.4257 263.639 99.4584 263.872C99.5016 264.178 99.4257 264.423 99.2315 264.6C98.9837 264.824 98.5723 264.901 98.1267 264.901ZM96.9854 264.498C97.9942 264.7 98.7531 264.665 99.0455 264.396C99.1697 264.283 99.2159 264.123 99.1854 263.909C99.169 263.793 99.1154 263.755 99.0708 263.735C98.7166 263.578 97.7026 264.064 96.9854 264.498Z" fill="#864EFF"/>
<path d="M96.6279 264.697C96.6041 264.697 96.5803 264.691 96.5587 264.679C96.5163 264.654 96.4902 264.609 96.4902 264.56C96.4902 264.49 96.4984 262.822 97.1278 262.265C97.2945 262.117 97.4879 262.053 97.7089 262.081C98.0519 262.123 98.1449 262.339 98.1702 262.464C98.3011 263.116 97.2484 264.366 96.6956 264.68C96.6747 264.692 96.6509 264.697 96.6279 264.697ZM97.6137 262.349C97.5013 262.349 97.4016 262.389 97.3101 262.469C96.9352 262.802 96.8057 263.738 96.7737 264.293C97.3243 263.853 97.9812 262.915 97.9016 262.517C97.8882 262.452 97.851 262.375 97.6754 262.352C97.6546 262.351 97.6338 262.349 97.6137 262.349Z" fill="#864EFF"/>
<path d="M124.474 264.902C123.836 264.902 123.144 264.793 122.652 264.695C122.594 264.684 122.551 264.638 122.542 264.581C122.534 264.523 122.563 264.467 122.615 264.44C122.876 264.304 125.183 263.127 125.894 263.514C126.032 263.589 126.112 263.715 126.127 263.878C126.152 264.151 126.068 264.376 125.879 264.546C125.582 264.813 125.05 264.902 124.474 264.902ZM123.107 264.5C124.392 264.712 125.344 264.657 125.695 264.341C125.818 264.231 125.87 264.087 125.853 263.902C125.846 263.83 125.819 263.785 125.762 263.753C125.378 263.543 124.056 264.044 123.107 264.5Z" fill="#864EFF"/>
<path d="M122.676 264.697C122.648 264.697 122.621 264.689 122.598 264.672C122.557 264.645 122.536 264.598 122.539 264.549C122.545 264.483 122.679 262.924 123.406 262.317C123.629 262.132 123.885 262.055 124.166 262.081C124.546 262.12 124.655 262.313 124.681 262.468C124.788 263.124 123.423 264.374 122.732 264.686C122.715 264.694 122.696 264.697 122.676 264.697ZM124.056 262.349C123.882 262.349 123.727 262.408 123.583 262.528C123.104 262.927 122.912 263.861 122.845 264.315C123.548 263.888 124.475 262.905 124.411 262.512C124.405 262.479 124.389 262.378 124.138 262.353C124.111 262.351 124.083 262.349 124.056 262.349Z" fill="#864EFF"/>
<path d="M110.073 88.9395C110.523 92.4124 111.591 99.4574 109.043 101.59C109.043 101.59 109.754 105.13 116.127 105.544C123.134 105.999 119.702 102.283 119.702 102.283C115.937 101.121 116.22 98.29 117.06 95.6689L110.073 88.9395Z" fill="#F1EBFF"/>
<path d="M123.11 81.8648C123.066 81.8648 123.021 81.8543 122.98 81.832C122.847 81.7606 122.797 81.5939 122.869 81.46C123.588 80.1231 124.849 80.0025 124.902 79.9981C125.053 79.9891 125.186 80.0978 125.198 80.2488C125.211 80.3991 125.099 80.5315 124.949 80.5449C124.907 80.5486 123.926 80.6535 123.352 81.7204C123.302 81.8127 123.207 81.8648 123.11 81.8648Z" fill="#501DBF"/>
<path d="M125.107 84.9277C125.107 84.9277 126.086 86.8554 127.046 87.7401C126.485 88.371 125.417 88.208 125.417 88.208L125.107 84.9277Z" fill="#864EFF"/>
<path d="M124.617 84.1679C124.661 84.6329 124.943 84.9871 125.247 84.9581C125.552 84.929 125.762 84.5288 125.718 84.0638C125.674 83.5988 125.392 83.2446 125.088 83.2736C124.784 83.3027 124.573 83.7029 124.617 84.1679Z" fill="#501DBF"/>
<path d="M124.955 83.3123L126.042 82.8853C126.042 82.8853 125.551 83.8115 124.955 83.3123Z" fill="#501DBF"/>
<path d="M116.309 264.561H122.101L122.487 251.148H116.695L116.309 264.561Z" fill="#F1EBFF"/>
<path d="M89.9941 264.561H95.7862L97.6484 251.148H91.8564L89.9941 264.561Z" fill="#F1EBFF"/>
<path d="M96.145 263.889H89.638C89.4014 263.889 89.2094 264.054 89.1759 264.285L88.4342 269.434C88.3575 269.968 88.8166 270.473 89.3627 270.463C91.6311 270.425 92.7241 270.291 95.5862 270.291C97.3465 270.291 99.9186 270.474 102.349 270.474C104.727 270.474 104.91 268.07 103.897 267.852C99.3583 266.876 98.6419 265.53 97.1129 264.245C96.8377 264.014 96.4917 263.889 96.145 263.889Z" fill="#AF89FF"/>
<path d="M122.301 263.889H115.793C115.557 263.889 115.365 264.054 115.331 264.285L114.59 269.434C114.514 269.968 114.973 270.473 115.519 270.463C117.787 270.425 118.88 270.291 121.743 270.291C123.503 270.291 127.144 270.474 129.575 270.474C131.953 270.474 132.136 268.07 131.124 267.852C126.584 266.876 124.798 265.53 123.269 264.245C122.992 264.014 122.646 263.889 122.301 263.889Z" fill="#AF89FF"/>
<path d="M122.487 251.151L122.288 258.065H116.494L116.693 251.151H122.487Z" fill="#D0BBFF"/>
<path d="M91.8534 251.151H97.6476L96.6849 258.065H90.8906L91.8534 251.151Z" fill="#D0BBFF"/>
<path d="M103.771 112.172C102.268 114.649 99.9687 116.948 99.9687 116.948L99.3065 116.509L91.9707 111.606C91.9707 111.606 95.9957 102.738 98.9866 102.254C101.866 101.793 103.964 104.769 104.954 107.953C105.311 109.106 104.693 110.669 103.771 112.172Z" fill="#E7DCFF"/>
<path d="M103.771 112.171C102.268 114.649 99.9688 116.948 99.9688 116.948L99.3066 116.509C99.634 113.831 100.676 111.174 101.866 110.334C102.595 110.408 103.242 111.182 103.771 112.171Z" fill="#DCCCFF"/>
<path d="M128.865 116.628V116.636C128.516 118.86 128.062 121.494 127.452 124.611C126.678 128.599 125.666 133.383 124.349 139.104C115.034 138.494 105.407 137.869 100.876 137.579C101.888 128.048 102.282 122.156 98.9863 102.254C98.9863 102.254 103.979 101.503 109.045 101.592C113.003 101.659 116.247 101.741 119.699 102.284C124.253 102.998 129.371 104.397 129.371 104.397C129.371 104.397 130.681 104.955 128.865 116.628Z" fill="#E7DCFF"/>
<path d="M128.866 116.628V116.636C128.517 118.86 128.063 121.494 127.453 124.611C126.456 122.669 125.05 118.882 124.246 116.1H128.606L128.866 116.628Z" fill="#DCCCFF"/>
<path d="M108.828 84.0459C109.718 89.7248 109.973 92.1473 113.135 94.8071C117.89 98.8076 124.671 96.4736 125.496 90.6429C126.239 85.3947 124.66 76.9898 118.854 75.2436C113.134 73.5242 107.939 78.3669 108.828 84.0459Z" fill="#F1EBFF"/>
<path d="M118.145 138.695C118.145 138.695 117.773 149.029 116.88 162.064C116.136 173.001 115.013 185.827 113.443 196.05C113.428 196.147 113.413 196.236 113.398 196.333C110.579 214.427 98.0868 256.723 98.0868 256.723H90.1855C90.1855 256.723 96.6955 215.878 98.124 197.977C101.747 152.69 92.6705 147.564 100.877 137.579L118.145 138.695Z" fill="#864EFF"/>
<path d="M116.879 162.064C116.135 173.001 115.012 185.828 113.442 196.05C110.771 182.77 106.382 163.374 112.274 150.688C113.68 154.275 115.339 158.352 116.879 162.064Z" fill="#9666FF"/>
<path d="M124.348 139.101C124.348 139.101 131.025 178.793 130.646 196.456C130.25 214.827 123.519 256.726 123.519 256.726H115.687C115.687 256.726 116.926 215.9 116.234 197.857C115.479 178.187 107.158 137.985 107.158 137.985L124.348 139.101Z" fill="#864EFF"/>
<path d="M114.353 257.091H124.852L125.671 253.568L113.98 253.648L114.353 257.091Z" fill="#501DBF"/>
<path d="M89.041 257.091H99.5389L100.358 253.568L89.1139 253.648L89.041 257.091Z" fill="#501DBF"/>
<path d="M100.612 136.176L99.4171 138.208C99.3241 138.366 99.5064 138.545 99.778 138.563L124.395 140.161C124.606 140.176 124.788 140.083 124.811 139.951L125.159 137.864C125.183 137.719 125.008 137.584 124.776 137.569L101.006 136.026C100.831 136.013 100.672 136.075 100.612 136.176Z" fill="#501DBF"/>
<path d="M103.633 139.041L102.996 138.999C102.869 138.991 102.777 138.92 102.79 138.84L103.267 136.13C103.281 136.05 103.395 135.992 103.522 136L104.159 136.042C104.286 136.05 104.379 136.122 104.365 136.201L103.888 138.912C103.874 138.991 103.759 139.049 103.633 139.041Z" fill="#864EFF"/>
<path d="M119.062 140.044L118.425 140.002C118.299 139.994 118.207 139.923 118.22 139.843L118.696 137.133C118.71 137.053 118.825 136.995 118.952 137.003L119.589 137.045C119.715 137.053 119.808 137.124 119.794 137.204L119.318 139.914C119.304 139.994 119.189 140.052 119.062 140.044Z" fill="#864EFF"/>
<path d="M130.704 110.381C131.594 113.363 132.446 116.37 133.271 119.375L135.762 128.369L136.074 129.485L136.152 129.764L136.191 129.901L136.216 129.972C136.254 130.068 136.258 130.168 136.312 130.265C136.467 130.659 136.725 131.088 137.09 131.514C137.827 132.365 138.931 133.169 140.137 133.865C142.566 135.268 145.482 136.322 148.311 137.168L147.885 140.07C144.557 139.869 141.382 139.244 138.153 137.969C136.56 137.291 134.946 136.454 133.474 135.078C132.744 134.39 132.048 133.553 131.534 132.532C131.394 132.289 131.297 132.007 131.184 131.742L131.104 131.54L131.053 131.398L130.954 131.118L130.559 129.998C129.521 127.015 128.554 124.029 127.639 121.027C126.704 118.03 125.823 115.028 125.006 111.993L130.704 110.381Z" fill="#F1EBFF"/>
<path d="M129.376 104.398C132.346 105.37 135.476 115.105 135.476 115.105L124.732 119.729C124.732 119.729 120.242 108.809 122.245 106.309C124.331 103.706 125.96 103.279 129.376 104.398Z" fill="#E7DCFF"/>
<path d="M123.632 74.9224C121.73 72.5758 107.074 70.9018 106.29 77.2876C101.1 80.931 106.027 90.35 106.771 92.7472C103.175 93.7389 91.6016 97.7037 100.033 105.394C108.465 113.083 121.216 111.773 123.704 103.817C125.445 98.252 119.915 88.9446 120.039 85.6792C120.162 82.4145 126.88 78.9304 123.632 74.9224Z" fill="#501DBF"/>
<path d="M107.794 93.9241C107.741 93.9241 107.687 93.901 107.651 93.8564C106.304 92.2151 101.623 83.6204 103.265 79.5218C103.775 78.2465 104.833 77.5025 106.408 77.3098C106.509 77.2957 106.603 77.3694 106.615 77.472C106.628 77.574 106.555 77.667 106.453 77.6789C105.023 77.8537 104.066 78.5196 103.61 79.6601C102.024 83.6197 106.619 92.0128 107.938 93.6206C108.003 93.7002 107.991 93.817 107.912 93.8824C107.878 93.9107 107.836 93.9241 107.794 93.9241Z" fill="#501DBF"/>
<path d="M118.913 85.33C119.052 86.4594 119.667 87.5025 120.37 88.1728C121.427 89.1817 122.424 88.489 122.521 87.2064C122.609 86.0517 122.165 84.1359 120.915 83.6054C119.683 83.0831 118.752 84.0392 118.913 85.33Z" fill="#F1EBFF"/>
<path d="M144.62 136.369L148.851 134.933L148.185 140.008C148.185 140.008 146.522 140.78 144.365 138.883L142.303 137.562L143.923 136.675C144.147 136.553 144.38 136.451 144.62 136.369Z" fill="#F1EBFF"/>
<path d="M151.801 134.918L150.508 139.356L148.186 140.008L148.852 134.933L151.801 134.918Z" fill="#F1EBFF"/>
</svg>
