<svg width="223" height="92" viewBox="0 0 223 92" fill="none" xmlns="http://www.w3.org/2000/svg">
<path d="M11.6424 80.6699V49.8419H23.4671C25.1407 49.8419 26.6527 50.2603 28.0033 51.0971C29.3538 51.9338 30.4255 53.0568 31.2182 54.4661C32.0109 55.8607 32.4073 57.4095 32.4073 59.1123C32.4073 60.5069 32.1504 61.7914 31.6366 62.9658C31.1374 64.1256 30.4328 65.1311 29.5226 65.9826C28.6272 66.834 27.5922 67.4799 26.4178 67.9203L33.7945 80.6699H27.6069L20.4724 68.4048H17.0153V80.6699H11.6424ZM17.0153 63.0319H22.8506C23.6139 63.0319 24.3112 62.8411 24.9425 62.4594C25.5737 62.0777 26.0802 61.5639 26.4619 60.918C26.8435 60.2721 27.0344 59.5527 27.0344 58.76C27.0344 57.9526 26.8435 57.226 26.4619 56.58C26.0802 55.9341 25.5737 55.4203 24.9425 55.0386C24.3112 54.657 23.6139 54.4661 22.8506 54.4661H17.0153V63.0319ZM46.1897 81.2424C44.1639 81.2424 42.3142 80.7213 40.6407 79.679C38.9818 78.6367 37.6533 77.2348 36.6551 75.4732C35.6715 73.7116 35.1797 71.7665 35.1797 69.6379C35.1797 68.0378 35.466 66.5404 36.0385 65.1458C36.611 63.7365 37.3964 62.5034 38.3946 61.4465C39.4076 60.3748 40.582 59.5381 41.9178 58.9362C43.2537 58.3343 44.6777 58.0334 46.1897 58.0334C47.9073 58.0334 49.478 58.4004 50.902 59.1344C52.3406 59.8537 53.5591 60.8446 54.5573 62.1071C55.5556 63.3695 56.2822 64.8082 56.7373 66.423C57.1924 68.0378 57.2952 69.726 57.0456 71.4876H40.949C41.1545 72.3097 41.4921 73.051 41.9619 73.7116C42.4316 74.3575 43.0262 74.8787 43.7455 75.275C44.4648 75.6567 45.2796 75.8549 46.1897 75.8696C47.1292 75.8842 47.9807 75.664 48.744 75.209C49.5221 74.7392 50.168 74.108 50.6818 73.3152L56.1648 74.5924C55.2693 76.5448 53.9334 78.145 52.1571 79.3928C50.3809 80.6259 48.3917 81.2424 46.1897 81.2424ZM40.7728 67.4579H51.6066C51.4452 66.5771 51.1002 65.7844 50.5717 65.0798C50.0579 64.3604 49.4193 63.7879 48.656 63.3622C47.8926 62.9365 47.0705 62.7236 46.1897 62.7236C45.3089 62.7236 44.4942 62.9365 43.7455 63.3622C42.9968 63.7732 42.3582 64.3384 41.8298 65.0577C41.316 65.7624 40.9636 66.5624 40.7728 67.4579ZM62.586 81.2424C61.8227 81.2424 61.1694 80.9782 60.6263 80.4497C60.0978 79.9066 59.8335 79.246 59.8335 78.4679C59.8335 77.7192 60.0978 77.0733 60.6263 76.5302C61.1694 75.987 61.8227 75.7154 62.586 75.7154C63.3494 75.7154 64.0027 75.987 64.5458 76.5302C65.089 77.0733 65.3606 77.7192 65.3606 78.4679C65.3606 79.246 65.089 79.9066 64.5458 80.4497C64.0027 80.9782 63.3494 81.2424 62.586 81.2424Z" fill="#864EFF"/>
<path d="M77.145 81.0663C76 80.9929 74.8917 80.7653 73.82 80.3837C72.7631 79.9873 71.8235 79.4515 71.0015 78.7762C70.1794 78.1009 69.5481 77.2935 69.1077 76.354L73.6439 74.4162C73.82 74.7098 74.1063 75.0255 74.5026 75.3631C74.899 75.6861 75.3688 75.9576 75.9119 76.1778C76.4698 76.398 77.079 76.5081 77.7396 76.5081C78.2974 76.5081 78.8259 76.4347 79.325 76.2879C79.8388 76.1265 80.2499 75.8842 80.5581 75.5613C80.8811 75.2383 81.0426 74.8199 81.0426 74.3061C81.0426 73.763 80.8517 73.3446 80.4701 73.051C80.1031 72.7427 79.6333 72.5152 79.0608 72.3684C78.5029 72.2069 77.9598 72.0601 77.4313 71.928C76.0367 71.6491 74.7375 71.216 73.5338 70.6288C72.3447 70.0416 71.3831 69.2856 70.6491 68.3607C69.9298 67.4212 69.5702 66.2909 69.5702 64.9697C69.5702 63.5163 69.9518 62.2612 70.7152 61.2042C71.4932 60.1473 72.4988 59.3325 73.7319 58.76C74.9797 58.1875 76.323 57.9012 77.7616 57.9012C79.5085 57.9012 81.1086 58.2682 82.562 59.0022C84.03 59.7216 85.1897 60.7418 86.0411 62.063L81.7913 64.5733C81.5857 64.221 81.2995 63.898 80.9325 63.6044C80.5655 63.2961 80.1471 63.0466 79.6773 62.8557C79.2076 62.6502 78.7158 62.5328 78.202 62.5034C77.5414 62.4741 76.9395 62.5328 76.3964 62.6796C75.8532 62.8264 75.4128 63.0759 75.0752 63.4283C74.7522 63.7806 74.5907 64.2503 74.5907 64.8375C74.5907 65.3954 74.8109 65.8138 75.2513 66.0927C75.6917 66.3569 76.2202 66.5624 76.8368 66.7092C77.468 66.856 78.0699 67.0175 78.6424 67.1937C79.9342 67.6194 81.1453 68.1405 82.2757 68.7571C83.4207 69.3737 84.3382 70.1297 85.0282 71.0252C85.7182 71.9206 86.0485 72.9923 86.0191 74.2401C86.0191 75.664 85.5934 76.9118 84.7419 77.9835C83.8905 79.0404 82.7895 79.8478 81.4389 80.4057C80.1031 80.9635 78.6718 81.1837 77.145 81.0663ZM99.1324 81.2424C97.1065 81.2424 95.2568 80.7213 93.5833 79.679C91.9245 78.6367 90.5959 77.2421 89.5977 75.4952C88.6141 73.7336 88.1224 71.7885 88.1224 69.6599C88.1224 68.0451 88.4086 66.5404 88.9811 65.1458C89.5537 63.7365 90.339 62.5034 91.3373 61.4465C92.3502 60.3748 93.5246 59.5381 94.8605 58.9362C96.1964 58.3343 97.6203 58.0334 99.1324 58.0334C101.158 58.0334 103.001 58.5545 104.659 59.5968C106.333 60.6391 107.661 62.041 108.645 63.8026C109.643 65.5642 110.142 67.5166 110.142 69.6599C110.142 71.26 109.856 72.7574 109.284 74.152C108.711 75.5466 107.918 76.7797 106.905 77.8514C105.907 78.9083 104.74 79.7377 103.404 80.3396C102.083 80.9415 100.659 81.2424 99.1324 81.2424ZM99.1324 75.8696C100.204 75.8696 101.166 75.5833 102.017 75.0108C102.868 74.4383 103.536 73.6822 104.021 72.7427C104.52 71.8032 104.769 70.7756 104.769 69.6599C104.769 68.5149 104.513 67.4726 103.999 66.5331C103.5 65.5789 102.817 64.8229 101.951 64.265C101.099 63.6925 100.16 63.4062 99.1324 63.4062C98.0754 63.4062 97.1212 63.6925 96.2698 64.265C95.4183 64.8375 94.743 65.6009 94.2439 66.5551C93.7448 67.5093 93.4952 68.5442 93.4952 69.6599C93.4952 70.8196 93.7521 71.8693 94.2659 72.8088C94.7797 73.7483 95.4624 74.497 96.3138 75.0548C97.1799 75.598 98.1194 75.8696 99.1324 75.8696ZM112.217 72.5225V58.6499H117.59V71.1132C117.59 71.9794 117.803 72.7721 118.229 73.4914C118.654 74.196 119.219 74.7612 119.924 75.1869C120.643 75.598 121.429 75.8035 122.28 75.8035C123.161 75.8035 123.954 75.598 124.658 75.1869C125.363 74.7612 125.928 74.196 126.354 73.4914C126.78 72.7721 126.992 71.9794 126.992 71.1132V58.6499H132.365L132.387 80.6699H127.015L126.992 78.6661C126.229 79.4588 125.326 80.0901 124.284 80.5598C123.242 81.0149 122.126 81.2424 120.937 81.2424C119.337 81.2424 117.876 80.8534 116.555 80.0754C115.234 79.2827 114.177 78.233 113.384 76.9265C112.606 75.6053 112.217 74.1373 112.217 72.5225ZM136.817 80.6699L136.795 58.6499H142.168L142.19 60.6097C142.939 59.817 143.834 59.1931 144.877 58.738C145.919 58.2682 147.042 58.0334 148.246 58.0334C149.053 58.0334 149.86 58.1508 150.668 58.3857L148.554 63.8026C147.996 63.5824 147.438 63.4723 146.88 63.4723C146.014 63.4723 145.221 63.6852 144.502 64.1109C143.798 64.5219 143.232 65.0871 142.807 65.8064C142.396 66.5111 142.19 67.2964 142.19 68.1626V80.6699H136.817ZM165.758 74.0419L170.603 76.6623C169.59 78.0422 168.32 79.1505 166.793 79.9873C165.267 80.8241 163.6 81.2424 161.795 81.2424C159.769 81.2424 157.919 80.7213 156.246 79.679C154.587 78.6367 153.258 77.2421 152.26 75.4952C151.277 73.7336 150.785 71.7885 150.785 69.6599C150.785 68.0451 151.071 66.5404 151.644 65.1458C152.216 63.7365 153.001 62.5034 154 61.4465C155.013 60.3748 156.187 59.5381 157.523 58.9362C158.859 58.3343 160.283 58.0334 161.795 58.0334C163.6 58.0334 165.267 58.4517 166.793 59.2885C168.32 60.1253 169.59 61.2483 170.603 62.6576L165.758 65.2559C165.245 64.6687 164.635 64.2136 163.931 63.8907C163.241 63.5677 162.529 63.4062 161.795 63.4062C160.738 63.4062 159.784 63.6998 158.932 64.287C158.081 64.8596 157.405 65.6229 156.906 66.5771C156.407 67.5166 156.158 68.5442 156.158 69.6599C156.158 70.7609 156.407 71.7885 156.906 72.7427C157.405 73.6822 158.081 74.4383 158.932 75.0108C159.784 75.5833 160.738 75.8696 161.795 75.8696C162.558 75.8696 163.285 75.7081 163.975 75.3851C164.665 75.0475 165.259 74.5997 165.758 74.0419ZM183.557 81.2424C181.531 81.2424 179.681 80.7213 178.008 79.679C176.349 78.6367 175.02 77.2348 174.022 75.4732C173.038 73.7116 172.547 71.7665 172.547 69.6379C172.547 68.0378 172.833 66.5404 173.405 65.1458C173.978 63.7365 174.763 62.5034 175.762 61.4465C176.775 60.3748 177.949 59.5381 179.285 58.9362C180.621 58.3343 182.045 58.0334 183.557 58.0334C185.274 58.0334 186.845 58.4004 188.269 59.1344C189.708 59.8537 190.926 60.8446 191.924 62.1071C192.923 63.3695 193.649 64.8082 194.104 66.423C194.559 68.0378 194.662 69.726 194.413 71.4876H178.316C178.521 72.3097 178.859 73.051 179.329 73.7116C179.799 74.3575 180.393 74.8787 181.112 75.275C181.832 75.6567 182.647 75.8549 183.557 75.8696C184.496 75.8842 185.348 75.664 186.111 75.209C186.889 74.7392 187.535 74.108 188.049 73.3152L193.532 74.5924C192.636 76.5448 191.3 78.145 189.524 79.3928C187.748 80.6259 185.759 81.2424 183.557 81.2424ZM178.14 67.4579H188.974C188.812 66.5771 188.467 65.7844 187.939 65.0798C187.425 64.3604 186.786 63.7879 186.023 63.3622C185.26 62.9365 184.438 62.7236 183.557 62.7236C182.676 62.7236 181.861 62.9365 181.112 63.3622C180.364 63.7732 179.725 64.3384 179.197 65.0577C178.683 65.7624 178.331 66.5624 178.14 67.4579Z" fill="black"/>
<path d="M206.257 63.798V55.4744H197.933V50.1016H206.257V41.778H211.63V50.1016H219.953V55.4744H211.63V63.798H206.257Z" fill="#864EFF"/>
<path fill-rule="evenodd" clip-rule="evenodd" d="M128.56 0.690931C122.064 0.518989 116.599 0.335809 113.778 0.173211C108.206 -0.147992 94.9857 -0.0100102 84.3994 0.483958C76.2613 0.862297 62.9244 1.80804 50.8166 2.78108C47.4309 2.71357 44.0015 2.62906 40.6221 2.52771C10.4315 1.62251 6.55905 1.75786 5.03131 3.77165C3.44869 5.85899 3.44269 6.03662 4.9532 6.10063C5.36761 6.11816 5.79271 6.24449 6.15628 6.43776C5.4821 6.72517 5.09191 7.06847 4.79634 7.48238C4.73046 7.57471 4.66739 7.66342 4.60715 7.74863C2.27988 7.17999 1.94405 7.50057 2.31967 9.79337C2.40383 10.307 2.3966 10.8984 2.31397 11.5038C2.08758 11.7093 2.02404 12.0746 2.07294 12.6454C1.84667 13.4357 1.50602 14.1804 1.08785 14.7316C-0.471615 16.7873 -0.428241 16.9627 1.69927 17.2052L1.79983 17.2165C1.60911 17.7363 1.36932 18.2149 1.09121 18.6044C-0.423186 20.7252 -0.376051 20.8987 1.75575 21.0509C3.01771 21.1409 4.36701 21.1487 4.75414 21.0682C5.07522 21.0014 6.16933 22.0108 7.36587 23.4377C6.44802 23.6196 6.75811 23.9014 8.06433 24.5849C8.20544 24.6588 8.34373 24.7377 8.47873 24.8209C9.11306 25.5712 9.78489 26.1836 10.4939 26.6581C11.2289 27.6686 11.3607 28.5874 10.4322 28.633C7.71992 28.7662 11.069 31.288 17.3817 33.866C24.2502 36.6709 24.6339 36.673 58.1178 34.0948C65.2512 33.5455 72.5861 32.9094 79.2453 32.2752C82.9857 32.482 87.5116 32.6571 92.1394 32.7742C95.6538 33.0099 99.2175 33.2139 102.532 33.3622C122.076 34.2402 170.914 34.6513 164.407 33.8832C158.871 33.2297 161.753 31.8726 170.508 31.0102C175.021 30.5656 178.882 29.5583 179.089 28.7719C179.295 27.9854 180.665 27.3929 182.134 27.4551C184.121 27.5393 184.818 26.8794 184.862 24.8726C184.878 24.1073 184.764 23.5013 184.465 23.0011C184.844 22.5752 185 21.9172 185 20.9585C185 19.1441 184.283 18.2553 182.136 17.6094C183.076 17.5715 183.287 17.431 182.877 17.068C183.175 16.7409 183.134 16.0912 182.9 14.9727C182.821 14.5921 182.79 14.1628 182.802 13.7126C183.133 13.6181 183.131 13.4701 182.83 13.2274C182.937 12.0456 183.314 10.7916 183.87 9.93382C185.292 7.74192 185.242 7.57076 183.162 7.52054C182.023 7.49312 180.812 7.53972 180.341 7.62526C180.021 7.12689 179.146 6.42759 177.829 5.61575C177.522 5.27413 177.206 4.90283 176.892 4.51264C175.113 2.30394 173.066 1.23146 170.753 1.29699C170.236 1.31164 169.567 1.3216 168.766 1.32724C163.996 -0.251808 158.224 -0.115472 130.715 0.630461C129.998 0.64989 129.28 0.670061 128.56 0.690931ZM15.7551 9.55844C15.6408 9.58784 15.5276 9.61743 15.4155 9.64728C15.1395 9.56565 14.8652 9.48027 14.5937 9.39136C14.9831 9.44277 15.3709 9.49863 15.7551 9.55844ZM8.49625 5.83483C9.11295 5.73492 9.83356 5.64543 10.6798 5.56463C9.12088 5.43924 8.45052 5.49634 8.49625 5.83483Z" fill="#864EFF"/>
<path d="M16.2082 25.5383L20.5541 7.1806H22.9818L23.5363 10.2377L18.9056 29H16.2981L16.2082 25.5383ZM13.9753 7.1806L17.5719 25.5383L17.2722 29H14.3649L9.5245 7.1806H13.9753ZM27.3577 25.4633L30.9093 7.1806H35.3601L30.5347 29H27.6274L27.3577 25.4633ZM24.3455 7.1806L28.7214 25.6132L28.6015 29H25.994L21.3334 10.2227L21.9328 7.1806H24.3455ZM44.5165 29.2997C42.8381 29.2997 41.3944 28.95 40.1856 28.2507C38.9767 27.5414 38.0476 26.5923 37.3982 25.4034C36.7588 24.2145 36.4391 22.8958 36.4391 21.4471V20.8477C36.4391 19.2092 36.7438 17.7656 37.3532 16.5168C37.9627 15.258 38.8368 14.2739 39.9758 13.5646C41.1147 12.8452 42.4684 12.4856 44.0369 12.4856C45.5755 12.4856 46.8743 12.8203 47.9333 13.4896C48.9923 14.149 49.7965 15.0731 50.346 16.262C50.8955 17.4509 51.1702 18.8396 51.1702 20.4281V22.2264H38.2824V19.3491H46.9292V19.0194C46.9292 18.42 46.8193 17.8855 46.5995 17.4159C46.3897 16.9364 46.07 16.5567 45.6404 16.277C45.2108 15.9973 44.6613 15.8574 43.992 15.8574C43.2327 15.8574 42.6133 16.0722 42.1337 16.5018C41.6542 16.9314 41.3045 17.5258 41.0847 18.2851C40.8749 19.0344 40.77 19.8886 40.77 20.8477V21.4471C40.77 22.3163 40.9299 23.0906 41.2496 23.7699C41.5693 24.4393 42.0288 24.9688 42.6283 25.3584C43.2277 25.7381 43.947 25.9279 44.7862 25.9279C45.5655 25.9279 46.2898 25.778 46.9592 25.4783C47.6385 25.1686 48.223 24.7041 48.7125 24.0846L50.8105 26.3625C50.301 27.1018 49.5168 27.7762 48.4578 28.3856C47.3988 28.995 46.085 29.2997 44.5165 29.2997ZM58.1836 5.98173V29H53.8527V5.98173H58.1836ZM68.4489 25.9279C68.9784 25.9279 69.4479 25.828 69.8576 25.6282C70.2672 25.4184 70.5869 25.1287 70.8167 24.759C71.0564 24.3794 71.1813 23.9348 71.1913 23.4253H75.2525C75.2425 24.5642 74.9378 25.5782 74.3383 26.4674C73.7389 27.3466 72.9347 28.0409 71.9256 28.5504C70.9166 29.05 69.7876 29.2997 68.5388 29.2997C66.8604 29.2997 65.4667 28.9351 64.3577 28.2057C63.2588 27.4764 62.4346 26.4924 61.8851 25.2535C61.3356 24.0147 61.0609 22.636 61.0609 21.1174V20.6829C61.0609 19.1543 61.3356 17.7706 61.8851 16.5318C62.4346 15.2929 63.2588 14.3089 64.3577 13.5796C65.4667 12.8502 66.8504 12.4856 68.5088 12.4856C69.8376 12.4856 71.0015 12.7403 72.0005 13.2499C73.0096 13.7594 73.7988 14.4887 74.3683 15.4378C74.9478 16.3769 75.2425 17.4909 75.2525 18.7796H71.1913C71.1813 18.2402 71.0664 17.7506 70.8466 17.311C70.6368 16.8714 70.3271 16.5218 69.9175 16.262C69.5179 15.9923 69.0233 15.8574 68.4339 15.8574C67.5947 15.8574 66.9553 16.0872 66.5157 16.5468C66.0761 17.0063 65.7764 17.6058 65.6166 18.3451C65.4567 19.0744 65.3768 19.8536 65.3768 20.6829V21.1174C65.3768 21.9666 65.4567 22.7559 65.6166 23.4852C65.7764 24.2145 66.0761 24.804 66.5157 25.2535C66.9653 25.7031 67.6097 25.9279 68.4489 25.9279ZM77.0658 21.0575V20.7428C77.0658 19.1643 77.3655 17.7556 77.9649 16.5168C78.5643 15.268 79.4335 14.2839 80.5724 13.5646C81.7114 12.8452 83.0951 12.4856 84.7235 12.4856C86.362 12.4856 87.7557 12.8452 88.9046 13.5646C90.0535 14.2839 90.9277 15.268 91.5271 16.5168C92.1265 17.7556 92.4263 19.1643 92.4263 20.7428V21.0575C92.4263 22.636 92.1265 24.0497 91.5271 25.2985C90.9277 26.5373 90.0535 27.5164 88.9046 28.2357C87.7657 28.9451 86.382 29.2997 84.7535 29.2997C83.115 29.2997 81.7214 28.9451 80.5724 28.2357C79.4335 27.5164 78.5643 26.5373 77.9649 25.2985C77.3655 24.0497 77.0658 22.636 77.0658 21.0575ZM81.3817 20.7428V21.0575C81.3817 21.9566 81.4916 22.7759 81.7114 23.5152C81.9312 24.2545 82.2858 24.8439 82.7754 25.2835C83.2649 25.7131 83.9243 25.9279 84.7535 25.9279C85.5627 25.9279 86.2121 25.7131 86.7017 25.2835C87.1912 24.8439 87.5459 24.2545 87.7657 23.5152C87.9854 22.7759 88.0953 21.9566 88.0953 21.0575V20.7428C88.0953 19.8636 87.9854 19.0544 87.7657 18.3151C87.5459 17.5758 87.1912 16.9813 86.7017 16.5318C86.2121 16.0822 85.5527 15.8574 84.7235 15.8574C83.9143 15.8574 83.2649 16.0822 82.7754 16.5318C82.2858 16.9813 81.9312 17.5758 81.7114 18.3151C81.4916 19.0544 81.3817 19.8636 81.3817 20.7428ZM99.3947 16.1421V29H95.0638V12.7853H99.1249L99.3947 16.1421ZM98.7952 20.3232H97.5964C97.5964 18.8146 97.8362 17.4709 98.3157 16.292C98.8052 15.1131 99.5196 14.184 100.459 13.5046C101.398 12.8253 102.562 12.4856 103.95 12.4856C105.399 12.4856 106.578 12.9302 107.487 13.8193C108.396 14.6985 108.851 16.1521 108.851 18.1802V29H104.535V18.6598C104.535 17.9205 104.435 17.351 104.235 16.9514C104.035 16.5517 103.751 16.272 103.381 16.1122C103.021 15.9523 102.587 15.8724 102.077 15.8724C101.518 15.8724 101.028 15.9873 100.609 16.2171C100.199 16.4468 99.8592 16.7665 99.5895 17.1762C99.3197 17.5758 99.1199 18.0453 98.9901 18.5848C98.8602 19.1243 98.7952 19.7038 98.7952 20.3232ZM108.446 19.8287L106.903 20.0235C106.903 18.6148 107.137 17.341 107.607 16.2021C108.076 15.0632 108.771 14.159 109.69 13.4896C110.619 12.8203 111.768 12.4856 113.137 12.4856C114.186 12.4856 115.095 12.6904 115.864 13.1C116.643 13.4996 117.248 14.149 117.677 15.0482C118.107 15.9473 118.322 17.1462 118.322 18.6448V29H113.991V18.6448C113.991 17.8955 113.891 17.326 113.691 16.9364C113.501 16.5368 113.222 16.262 112.852 16.1122C112.492 15.9523 112.063 15.8724 111.563 15.8724C111.044 15.8724 110.589 15.9773 110.199 16.1871C109.81 16.3869 109.485 16.6666 109.225 17.0263C108.966 17.386 108.771 17.8056 108.641 18.2851C108.511 18.7547 108.446 19.2692 108.446 19.8287ZM129.127 29.2997C127.448 29.2997 126.005 28.95 124.796 28.2507C123.587 27.5414 122.658 26.5923 122.008 25.4034C121.369 24.2145 121.049 22.8958 121.049 21.4471V20.8477C121.049 19.2092 121.354 17.7656 121.963 16.5168C122.573 15.258 123.447 14.2739 124.586 13.5646C125.725 12.8452 127.079 12.4856 128.647 12.4856C130.186 12.4856 131.484 12.8203 132.543 13.4896C133.602 14.149 134.407 15.0731 134.956 16.262C135.506 17.4509 135.78 18.8396 135.78 20.4281V22.2264H122.893V19.3491H131.539V19.0194C131.539 18.42 131.429 17.8855 131.21 17.4159C131 16.9364 130.68 16.5567 130.251 16.277C129.821 15.9973 129.271 15.8574 128.602 15.8574C127.843 15.8574 127.223 16.0722 126.744 16.5018C126.264 16.9314 125.915 17.5258 125.695 18.2851C125.485 19.0344 125.38 19.8886 125.38 20.8477V21.4471C125.38 22.3163 125.54 23.0906 125.86 23.7699C126.179 24.4393 126.639 24.9688 127.238 25.3584C127.838 25.7381 128.557 25.9279 129.396 25.9279C130.176 25.9279 130.9 25.778 131.569 25.4783C132.249 25.1686 132.833 24.7041 133.323 24.0846L135.421 26.3625C134.911 27.1018 134.127 27.7762 133.068 28.3856C132.009 28.995 130.695 29.2997 129.127 29.2997ZM153.913 12.7853V15.8424H144.472V12.7853H153.913ZM146.81 8.78408H151.126V24.1146C151.126 24.5842 151.186 24.9438 151.306 25.1936C151.436 25.4434 151.625 25.6182 151.875 25.7181C152.125 25.808 152.44 25.853 152.819 25.853C153.089 25.853 153.329 25.843 153.539 25.823C153.758 25.793 153.943 25.7631 154.093 25.7331L154.108 28.9101C153.738 29.03 153.339 29.1249 152.909 29.1948C152.48 29.2648 152.005 29.2997 151.486 29.2997C150.536 29.2997 149.707 29.1449 148.998 28.8352C148.299 28.5155 147.759 28.0059 147.379 27.3066C147 26.6073 146.81 25.6881 146.81 24.5492V8.78408ZM155.382 21.0575V20.7428C155.382 19.1643 155.682 17.7556 156.281 16.5168C156.88 15.268 157.75 14.2839 158.889 13.5646C160.027 12.8452 161.411 12.4856 163.04 12.4856C164.678 12.4856 166.072 12.8452 167.221 13.5646C168.37 14.2839 169.244 15.268 169.843 16.5168C170.443 17.7556 170.742 19.1643 170.742 20.7428V21.0575C170.742 22.636 170.443 24.0497 169.843 25.2985C169.244 26.5373 168.37 27.5164 167.221 28.2357C166.082 28.9451 164.698 29.2997 163.07 29.2997C161.431 29.2997 160.037 28.9451 158.889 28.2357C157.75 27.5164 156.88 26.5373 156.281 25.2985C155.682 24.0497 155.382 22.636 155.382 21.0575ZM159.698 20.7428V21.0575C159.698 21.9566 159.808 22.7759 160.027 23.5152C160.247 24.2545 160.602 24.8439 161.091 25.2835C161.581 25.7131 162.24 25.9279 163.07 25.9279C163.879 25.9279 164.528 25.7131 165.018 25.2835C165.507 24.8439 165.862 24.2545 166.082 23.5152C166.302 22.7759 166.411 21.9566 166.411 21.0575V20.7428C166.411 19.8636 166.302 19.0544 166.082 18.3151C165.862 17.5758 165.507 16.9813 165.018 16.5318C164.528 16.0822 163.869 15.8574 163.04 15.8574C162.23 15.8574 161.581 16.0822 161.091 16.5318C160.602 16.9813 160.247 17.5758 160.027 18.3151C159.808 19.0544 159.698 19.8636 159.698 20.7428Z" fill="white"/>
</svg>
